<?xml version="1.0" encoding="UTF-8"?>
<svg id="Calque_2" data-name="Calque 2" xmlns="http://www.w3.org/2000/svg" viewBox="0 0 382.39 436.81">
  <defs>
    <style>
      .cls-1 {
        fill: #95c11f;
        font-size: 242.64px;
      }

      .cls-1, .cls-2 {
        font-family: Anivers-Regular, 'Anivers Regular';
      }

      .cls-3 {
        fill: #1d1d1b;
      }

      .cls-4 {
        stroke: #f39200;
      }

      .cls-4, .cls-5, .cls-6 {
        fill: none;
        stroke-miterlimit: 10;
        stroke-width: 2.66px;
      }

      .cls-5 {
        stroke: #1d1d1b;
      }

      .cls-6 {
        stroke: #95c11f;
      }

      .cls-2 {
        fill: #f39200;
        font-size: 218.14px;
      }
    </style>
  </defs>
  <g id="Calque_1-2" data-name="Calque 1">
    <line class="cls-4" x1="382.39" y1="425.74" y2="425.74"/>
    <line class="cls-6" x1="382.39" y1="435.48" y2="435.48"/>
    <path class="cls-5" d="M.44,355.7H80.93v-120.6l-34.26,.27,55.33-106.27h41.01l.41-.74c-.15-1.04-.21-2.09-.21-3.15,0-7.51,3.48-14.3,9.08-19.3-5.31-2.8-9.08-8.03-9.08-14.29,0-6.76,4.24-12.51,10.27-15.06-.02-.48-.19-.95-.19-1.44,0-12.42,9.4-23.03,22.96-28.08,4.62-16.72,24.98-29.3,49.45-29.3,2.48,0,4.85,.26,7.25,.52,.4-9.38,14.84-16.93,32.71-16.93s32.58,7.69,32.75,17.19c4.53,2.12,8.82,4.62,12.85,7.53,1.68-.27,3.21-.71,4.99-.71,10.37,0,18.88,4.89,21.93,11.54,5.18,1.98,9.31,5.32,11.79,9.49,18.03,3.51,26.24,16.73,26.24,34.96,0,7.35-3.09,16.37-6.9,22.17,3.57,5.46,2.47,11.42-1.48,15.77,.58,2.21,4.75,9.13,2.1,19.59-1.27,4.99-8.88,14.9-18.24,16.05-4.03,13.89-17.25,34.33-44.96,31.37-10.2-1.09-18.97,5.42-30.55,2.95v166.48h105.35"/>
    <text class="cls-1" transform="translate(181.37 262.54)"><tspan x="0" y="0">T</tspan></text>
    <text class="cls-2" transform="translate(87.31 322.78)"><tspan x="0" y="0">D</tspan></text>
    <g>
      <path class="cls-3" d="M.79,383.27c-.1-2.53-.21-5.06-.33-7.6,1.03,.08,2.08,.15,3.15,.21,1.07,.06,2.12,.09,3.15,.09s2.08-.05,3.15-.15c1.07-.1,2.12-.15,3.15-.15,1.7,0,3.3,.13,4.81,.39,1.5,.26,2.83,.71,3.98,1.37,1.15,.65,2.06,1.53,2.73,2.64,.67,1.11,1.01,2.49,1.01,4.15,0,2.93-.92,5.22-2.76,6.88-1.84,1.66-4.24,2.83-7.21,3.5v.12c3.52,.16,6.3,1.01,8.34,2.55,2.04,1.54,3.06,4.02,3.06,7.42,0,2.22-.45,4.08-1.36,5.58-.91,1.5-2.1,2.72-3.56,3.65-1.46,.93-3.08,1.58-4.84,1.96-1.76,.38-3.51,.56-5.25,.56-.95,0-1.91-.02-2.88-.06-.97-.04-1.93-.06-2.88-.06H3.34c-.97,0-1.93,.04-2.88,.12,.12-2.53,.23-5.05,.33-7.57,.1-2.51,.15-5.07,.15-7.69v-10.21c0-2.61-.05-5.18-.15-7.71Zm12.34,10.21c1.36-.28,2.58-.74,3.65-1.39,1.07-.65,1.93-1.52,2.58-2.61,.65-1.09,.98-2.46,.98-4.12s-.3-2.92-.89-3.89c-.59-.97-1.35-1.72-2.26-2.25-.91-.53-1.94-.89-3.09-1.07-1.15-.18-2.29-.27-3.44-.27-1.03,0-1.9,.03-2.61,.09-.71,.06-1.35,.13-1.9,.21-.08,1.9-.16,3.78-.24,5.64-.08,1.86-.12,3.74-.12,5.64v4.45h3.2c1.38,0,2.76-.14,4.12-.41Zm-7.21,14.66c.08,1.98,.16,3.98,.24,5.99,.75,.08,1.64,.15,2.67,.21,1.03,.06,2.08,.09,3.15,.09,1.27,0,2.48-.22,3.65-.65,1.17-.44,2.19-1.08,3.06-1.93,.87-.85,1.56-1.9,2.08-3.15,.51-1.25,.77-2.66,.77-4.24,0-1.7-.31-3.1-.92-4.18-.61-1.09-1.49-1.94-2.64-2.55-1.15-.61-2.52-1.04-4.12-1.28-1.6-.24-3.39-.36-5.37-.36h-2.67v6.05c0,2.02,.04,4.02,.12,5.99Z"/>
      <path class="cls-3" d="M55.18,382.35c1.11,2.67,2.23,5.37,3.38,8.1,1.15,2.73,2.29,5.44,3.44,8.13,1.15,2.69,2.23,5.19,3.23,7.51,1.01,2.31,1.92,4.38,2.73,6.2,.81,1.82,1.47,3.2,1.99,4.16-.55-.08-1.08-.12-1.57-.12h-3.15c-.5,0-1.02,.04-1.57,.12-.28-.91-.65-2.01-1.13-3.29-.48-1.29-1-2.63-1.57-4.04-.57-1.4-1.16-2.83-1.75-4.27-.59-1.44-1.15-2.82-1.66-4.12-1.27-.04-2.55-.07-3.86-.09-1.31-.02-2.61-.03-3.92-.03-1.23,0-2.43,.01-3.62,.03-1.19,.02-2.39,.05-3.62,.09-1.27,3.09-2.41,6.02-3.44,8.81-1.03,2.79-1.8,5.09-2.31,6.91-.67-.08-1.41-.12-2.2-.12s-1.52,.04-2.2,.12c3.21-6.92,6.33-13.81,9.38-20.65,3.05-6.84,6.11-13.81,9.2-20.89h1.13c.95,2.29,1.98,4.78,3.09,7.45Zm-11.1-9.41h-2.2l7.3-9.91h3.98l7.3,9.91h-2.2l-7.12-6.23-7.06,6.23Zm-.41,25.04c1.03,0,2.1,.02,3.2,.06,1.11,.04,2.18,.06,3.2,.06,1.11,0,2.22,0,3.32-.03,1.11-.02,2.22-.05,3.32-.09l-6.59-15.07-6.47,15.07Z"/>
      <path class="cls-3" d="M84.85,378.76c-1.03,0-2.11,.01-3.23,.03-1.13,.02-2.25,.06-3.38,.12-1.13,.06-2.22,.13-3.26,.21-1.05,.08-1.99,.18-2.82,.3,.2-.71,.3-1.34,.3-1.9,0-.43-.1-1.05-.3-1.84,2.61,.08,5.16,.15,7.66,.21s5.04,.09,7.66,.09,5.16-.03,7.66-.09c2.49-.06,5.04-.13,7.66-.21-.2,.79-.3,1.42-.3,1.9,0,.51,.1,1.13,.3,1.84-.83-.12-1.77-.22-2.82-.3-1.05-.08-2.14-.15-3.26-.21-1.13-.06-2.25-.1-3.38-.12-1.13-.02-2.21-.03-3.23-.03-.12,4.08-.18,8.17-.18,12.29v10.21c0,2.61,.05,5.18,.15,7.71,.1,2.53,.21,5.03,.33,7.48-.91-.08-1.88-.12-2.91-.12s-2,.04-2.91,.12c.12-2.45,.23-4.95,.33-7.48,.1-2.53,.15-5.1,.15-7.71v-10.21c0-4.11-.06-8.21-.18-12.29Z"/>
      <path class="cls-3" d="M109.63,383.36c-.1-2.51-.21-5.07-.33-7.69,.51,.08,1.01,.15,1.48,.21,.47,.06,.95,.09,1.42,.09s.95-.03,1.42-.09c.47-.06,.97-.13,1.48-.21-.12,2.61-.23,5.17-.33,7.69-.1,2.51-.15,5.07-.15,7.69v10.21c0,2.61,.05,5.18,.15,7.71,.1,2.53,.21,5.03,.33,7.48-.91-.08-1.88-.12-2.91-.12s-2,.04-2.91,.12c.12-2.45,.23-4.95,.33-7.48,.1-2.53,.15-5.1,.15-7.71v-10.21c0-2.61-.05-5.17-.15-7.69Z"/>
      <path class="cls-3" d="M137.73,400.78v3.68h-14.78v-3.68h14.78Z"/>
      <path class="cls-3" d="M145.89,383.36c-.1-2.51-.21-5.07-.33-7.69,.95,.08,1.91,.15,2.88,.21,.97,.06,1.93,.09,2.88,.09,.47,0,1.05-.02,1.72-.06,.67-.04,1.35-.07,2.05-.09,.69-.02,1.35-.05,1.99-.09,.63-.04,1.17-.06,1.6-.06,.59,0,1.33,.02,2.2,.06,.87,.04,1.79,.16,2.76,.36,.97,.2,1.93,.5,2.88,.89,.95,.4,1.81,.97,2.58,1.72,.77,.75,1.39,1.69,1.87,2.82,.47,1.13,.71,2.52,.71,4.18,0,2.61-.56,4.73-1.69,6.35-1.13,1.62-2.51,2.89-4.15,3.8-1.64,.91-3.38,1.52-5.22,1.84-1.84,.32-3.47,.47-4.9,.47-.91,0-1.74,0-2.49-.03-.75-.02-1.52-.07-2.31-.15v3.26c0,2.61,.05,5.18,.15,7.71,.1,2.53,.21,5.03,.33,7.48-.91-.08-1.88-.12-2.91-.12s-2,.04-2.91,.12c.12-2.45,.23-4.95,.33-7.48,.1-2.53,.15-5.1,.15-7.71v-10.21c0-2.61-.05-5.17-.15-7.69Zm9.23,12.61c1.23,0,2.49-.14,3.8-.42,1.31-.28,2.5-.78,3.59-1.51,1.09-.73,1.98-1.74,2.67-3.03,.69-1.29,1.04-2.94,1.04-4.96,0-1.7-.24-3.09-.71-4.15-.47-1.07-1.14-1.9-1.99-2.49-.85-.59-1.89-1-3.12-1.22-1.23-.22-2.61-.33-4.16-.33h-5.34v17.63c1.34,.32,2.75,.47,4.21,.47Z"/>
      <path class="cls-3" d="M208.53,416.45c-.55-.08-1.08-.12-1.57-.12h-3.15c-.5,0-1.02,.04-1.57,.12-.28-.91-.65-2.01-1.13-3.29-.47-1.29-1-2.63-1.57-4.04-.57-1.4-1.16-2.83-1.75-4.27-.59-1.44-1.15-2.82-1.66-4.12-1.27-.04-2.55-.07-3.86-.09-1.31-.02-2.61-.03-3.92-.03-1.23,0-2.43,.01-3.62,.03-1.19,.02-2.39,.05-3.62,.09-1.27,3.09-2.41,6.02-3.44,8.81-1.03,2.79-1.8,5.09-2.31,6.91-.67-.08-1.4-.12-2.2-.12s-1.52,.04-2.2,.12c3.21-6.92,6.33-13.81,9.38-20.65,3.05-6.84,6.11-13.81,9.2-20.89h1.13c.95,2.29,1.98,4.78,3.09,7.45,1.11,2.67,2.23,5.37,3.38,8.1,1.15,2.73,2.29,5.44,3.44,8.13,1.15,2.69,2.23,5.19,3.23,7.51,1.01,2.31,1.92,4.38,2.73,6.2,.81,1.82,1.47,3.2,1.99,4.16Zm-26.29-18.46c1.03,0,2.1,.02,3.2,.06,1.11,.04,2.17,.06,3.2,.06,1.11,0,2.22,0,3.32-.03,1.11-.02,2.22-.05,3.32-.09l-6.59-15.07-6.47,15.07Z"/>
      <path class="cls-3" d="M219.13,396.84c-.77-1.29-1.62-2.71-2.55-4.27-.93-1.56-1.91-3.2-2.94-4.93-1.03-1.72-2.01-3.36-2.94-4.93-.93-1.56-1.77-2.97-2.52-4.21-.75-1.25-1.33-2.19-1.72-2.82,.55,.08,1.1,.15,1.63,.21,.53,.06,1.08,.09,1.63,.09s1.1-.03,1.63-.09,1.08-.13,1.63-.21c1.78,3.44,3.59,6.83,5.43,10.15,1.84,3.32,3.79,6.79,5.85,10.39,.91-1.42,1.86-2.99,2.85-4.69,.99-1.7,1.98-3.44,2.97-5.22,.99-1.78,1.94-3.57,2.85-5.37,.91-1.8,1.76-3.55,2.55-5.25,.99,.2,1.76,.3,2.31,.3s1.33-.1,2.31-.3c-1.9,2.89-3.6,5.5-5.1,7.83-1.5,2.33-2.83,4.45-3.98,6.35-1.15,1.9-2.16,3.61-3.03,5.13-.87,1.52-1.62,2.9-2.25,4.12,0,1.46,0,3.03,.03,4.69,.02,1.66,.05,3.29,.09,4.9,.04,1.6,.09,3.09,.15,4.45,.06,1.36,.13,2.46,.21,3.29-.91-.08-1.88-.12-2.91-.12s-2,.04-2.91,.12c.24-2.06,.38-4.55,.42-7.48,.04-2.93,.06-5.99,.06-9.2-.4-.67-.98-1.65-1.75-2.94Z"/>
      <path class="cls-3" d="M247.2,410.9c.53,.73,1.19,1.39,1.96,1.99,.77,.59,1.67,1.08,2.7,1.45,1.03,.38,2.18,.56,3.44,.56s2.48-.23,3.53-.68c1.05-.46,1.94-1.07,2.67-1.84,.73-.77,1.3-1.68,1.69-2.73,.4-1.05,.59-2.17,.59-3.35,0-1.82-.47-3.26-1.39-4.33-.93-1.07-2.09-1.96-3.47-2.67-1.39-.71-2.88-1.36-4.48-1.96-1.6-.59-3.1-1.33-4.48-2.23s-2.54-2.03-3.47-3.41c-.93-1.38-1.39-3.24-1.39-5.58,0-1.66,.3-3.17,.89-4.54,.59-1.37,1.45-2.54,2.58-3.53,1.13-.99,2.48-1.76,4.07-2.31,1.58-.55,3.36-.83,5.34-.83s3.54,.23,4.93,.68c1.38,.46,2.67,1.16,3.86,2.11-.36,.67-.65,1.39-.89,2.14-.24,.75-.47,1.7-.71,2.85h-.71c-.2-.55-.47-1.16-.8-1.81-.34-.65-.79-1.26-1.37-1.81-.57-.55-1.26-1.02-2.05-1.39-.79-.38-1.74-.56-2.85-.56s-2.13,.18-3.06,.53c-.93,.36-1.74,.86-2.43,1.51-.69,.65-1.23,1.43-1.6,2.34-.38,.91-.56,1.9-.56,2.97,0,1.86,.46,3.32,1.39,4.39,.93,1.07,2.09,1.97,3.47,2.7,1.38,.73,2.88,1.38,4.48,1.96,1.6,.57,3.09,1.28,4.48,2.11,1.38,.83,2.54,1.9,3.47,3.2s1.39,3.05,1.39,5.22c0,1.82-.33,3.54-.98,5.16-.65,1.62-1.6,3.04-2.85,4.24-1.25,1.21-2.77,2.14-4.57,2.79-1.8,.65-3.85,.98-6.14,.98-2.45,0-4.44-.33-5.96-.98-1.52-.65-2.8-1.39-3.83-2.23,.36-.91,.6-1.73,.74-2.46,.14-.73,.27-1.67,.39-2.82h.71c.32,.71,.74,1.43,1.28,2.17Z"/>
      <path class="cls-3" d="M309.66,416.45c-.55-.08-1.08-.12-1.57-.12h-3.15c-.5,0-1.02,.04-1.57,.12-.28-.91-.65-2.01-1.13-3.29-.47-1.29-1-2.63-1.57-4.04-.57-1.4-1.16-2.83-1.75-4.27-.59-1.44-1.15-2.82-1.66-4.12-1.27-.04-2.55-.07-3.86-.09-1.31-.02-2.61-.03-3.92-.03-1.23,0-2.43,.01-3.62,.03-1.19,.02-2.39,.05-3.62,.09-1.27,3.09-2.41,6.02-3.44,8.81-1.03,2.79-1.8,5.09-2.31,6.91-.67-.08-1.4-.12-2.2-.12s-1.52,.04-2.2,.12c3.21-6.92,6.33-13.81,9.38-20.65,3.05-6.84,6.11-13.81,9.2-20.89h1.13c.95,2.29,1.98,4.78,3.09,7.45,1.11,2.67,2.23,5.37,3.38,8.1,1.15,2.73,2.29,5.44,3.44,8.13,1.15,2.69,2.23,5.19,3.23,7.51,1.01,2.31,1.92,4.38,2.73,6.2,.81,1.82,1.47,3.2,1.99,4.16Zm-26.29-18.46c1.03,0,2.1,.02,3.21,.06,1.11,.04,2.17,.06,3.2,.06,1.11,0,2.22,0,3.32-.03,1.11-.02,2.22-.05,3.32-.09l-6.59-15.07-6.47,15.07Z"/>
      <path class="cls-3" d="M345.6,380.78c-.89-.71-1.88-1.34-2.97-1.87-1.09-.53-2.3-.97-3.62-1.31-1.33-.34-2.74-.5-4.24-.5-2.45,0-4.74,.38-6.85,1.13-2.12,.75-3.96,1.91-5.52,3.47s-2.79,3.54-3.68,5.94c-.89,2.39-1.33,5.23-1.33,8.52,0,2.89,.4,5.5,1.19,7.83,.79,2.33,1.95,4.3,3.47,5.91,1.52,1.6,3.38,2.84,5.58,3.71,2.2,.87,4.68,1.31,7.45,1.31,.83,0,1.7-.04,2.61-.12,.91-.08,1.79-.2,2.64-.36,.85-.16,1.64-.36,2.37-.59,.73-.24,1.36-.51,1.87-.83,.04-1.19,.07-2.37,.09-3.56,.02-1.19,.03-2.39,.03-3.62,0-1.38-.03-2.77-.09-4.15-.06-1.38-.13-2.71-.21-3.98,.99,.2,1.94,.3,2.85,.3,.44,0,.87-.02,1.31-.06,.44-.04,.85-.12,1.25-.24-.08,.91-.14,2.34-.18,4.3-.04,1.96-.06,4.54-.06,7.74,0,.79,0,1.59,.03,2.4,.02,.81,.03,1.61,.03,2.4-.83,.32-1.87,.64-3.12,.98-1.25,.34-2.57,.61-3.98,.83-1.41,.22-2.81,.42-4.21,.59-1.4,.18-2.68,.27-3.83,.27-3.52,0-6.7-.43-9.53-1.28-2.83-.85-5.23-2.17-7.21-3.95-1.98-1.78-3.5-4-4.57-6.65-1.07-2.65-1.6-5.72-1.6-9.2s.55-6.36,1.66-8.99c1.11-2.63,2.67-4.86,4.69-6.68,2.02-1.82,4.46-3.21,7.33-4.15,2.87-.95,6.04-1.42,9.53-1.42,2.02,0,3.81,.11,5.37,.33,1.56,.22,2.95,.5,4.15,.86,1.21,.36,2.26,.73,3.17,1.13,.91,.4,1.72,.77,2.43,1.13-.32,.55-.6,1.27-.86,2.14-.26,.87-.43,1.68-.5,2.43h-.71c-.59-.71-1.33-1.42-2.23-2.14Z"/>
      <path class="cls-3" d="M359.84,383.27c-.1-2.53-.21-5.06-.33-7.6,1.78,.08,3.55,.15,5.31,.21,1.76,.06,3.53,.09,5.31,.09s3.54-.03,5.28-.09c1.74-.06,3.5-.13,5.28-.21-.12,.59-.18,1.19-.18,1.78s.06,1.19,.18,1.78c-1.27-.08-2.42-.16-3.47-.24-1.05-.08-2.16-.16-3.32-.24-1.17-.08-2.44-.15-3.83-.21-1.39-.06-3.05-.09-4.99-.09-.04,1.27-.09,2.47-.15,3.62-.06,1.15-.09,2.45-.09,3.92,0,1.54,0,3.05,.03,4.51,.02,1.46,.03,2.57,.03,3.32,1.74,0,3.3-.02,4.69-.06,1.38-.04,2.65-.09,3.8-.15,1.15-.06,2.21-.12,3.17-.18,.97-.06,1.89-.13,2.76-.21-.12,.59-.18,1.21-.18,1.84,0,.59,.06,1.19,.18,1.78-1.03-.12-2.23-.22-3.59-.3-1.37-.08-2.73-.13-4.1-.15-1.36-.02-2.65-.04-3.86-.06-1.21-.02-2.17-.03-2.88-.03,0,.36-.01,.74-.03,1.16-.02,.42-.03,.94-.03,1.57v5.88c0,2.25,0,4.12,.03,5.58,.02,1.46,.05,2.57,.09,3.32h4.15c1.5,0,2.98-.03,4.42-.09,1.44-.06,2.81-.14,4.09-.24,1.29-.1,2.4-.25,3.35-.44-.08,.28-.13,.58-.15,.92-.02,.34-.03,.64-.03,.92,0,.63,.06,1.15,.18,1.54-1.78-.08-3.55-.12-5.31-.12h-10.77c-1.78,0-3.58,.04-5.4,.12,.12-2.53,.23-5.05,.33-7.57,.1-2.51,.15-5.07,.15-7.69v-10.21c0-2.61-.05-5.18-.15-7.71Z"/>
    </g>
  </g>
</svg>