<svg xmlns="http://www.w3.org/2000/svg" viewBox="0 0 382.39 436.81"><defs><style>.cls-1,.cls-2,.cls-3{fill:none;stroke-miterlimit:10;stroke-width:2.66px;}.cls-1{stroke:#f39200;}.cls-2{stroke:#95c11f;}.cls-3{stroke:#f6f6f6;}.cls-4{font-size:242.64px;fill:#95c11f;}.cls-4,.cls-5{font-family:Anivers-Regular, Anivers Regular;}.cls-5{font-size:218.14px;fill:#f39200;}.cls-6{fill:#f6f6f6;}</style></defs><g id="Calque_2" data-name="Calque 2"><g id="Calque_1-2" data-name="Calque 1"><line class="cls-1" x1="382.39" y1="425.74" y2="425.74"/><line class="cls-2" x1="382.39" y1="435.48" y2="435.48"/><path class="cls-3" d="M.44,355.7H80.93V235.1l-34.26.26L102,129.09h41l.41-.74a22,22,0,0,1-.21-3.15,25.87,25.87,0,0,1,9.07-19.3,16.26,16.26,0,0,1-9.07-14.29,16.44,16.44,0,0,1,10.27-15.06c0-.48-.19-.94-.19-1.44,0-12.42,9.4-23,23-28.07,4.62-16.72,25-29.3,49.45-29.3a66.49,66.49,0,0,1,7.25.52c.4-9.38,14.85-16.93,32.71-16.93,18,0,32.58,7.69,32.75,17.19a79.31,79.31,0,0,1,12.85,7.53,31.24,31.24,0,0,1,5-.71c10.37,0,18.88,4.88,21.93,11.53A23.12,23.12,0,0,1,350,46.36c18,3.51,26.25,16.73,26.25,35,0,7.35-3.09,16.36-6.9,22.17,3.57,5.46,2.47,11.42-1.48,15.77.58,2.2,4.75,9.13,2.1,19.59-1.26,5-8.88,14.9-18.24,16.05-4,13.89-17.25,34.33-45,31.37-10.2-1.09-19,5.42-30.55,3V355.7H381.53"/><text class="cls-4" transform="translate(181.37 262.54)">T</text><text class="cls-5" transform="translate(87.31 322.78)">D</text><path class="cls-6" d="M.79,383.27q-.15-3.79-.33-7.59,1.55.12,3.15.21c1.06.06,2.11.09,3.14.09s2.08-.05,3.15-.15,2.11-.15,3.14-.15a29.31,29.31,0,0,1,4.81.38,12.31,12.31,0,0,1,4,1.37,7.51,7.51,0,0,1,2.73,2.64,7.9,7.9,0,0,1,1,4.15,8.84,8.84,0,0,1-2.75,6.89,15.72,15.72,0,0,1-7.22,3.5v.12a14.67,14.67,0,0,1,8.34,2.55c2,1.54,3.06,4,3.06,7.42a10.61,10.61,0,0,1-1.37,5.58,11,11,0,0,1-3.56,3.65,14.67,14.67,0,0,1-4.83,2,25.56,25.56,0,0,1-5.26.56c-1,0-1.91,0-2.87-.06s-1.93-.06-2.88-.06H3.34q-1.45,0-2.88.12.18-3.79.33-7.57t.15-7.68V391Q.94,387.08.79,383.27Zm12.34,10.21a11.09,11.09,0,0,0,3.65-1.39,7.67,7.67,0,0,0,2.58-2.61,7.87,7.87,0,0,0,1-4.13,7.35,7.35,0,0,0-.89-3.89,6.46,6.46,0,0,0-2.25-2.25,8.78,8.78,0,0,0-3.09-1.07,22.15,22.15,0,0,0-3.44-.27q-1.54,0-2.61.09c-.71.06-1.35.13-1.9.21Q6,381,5.92,383.81t-.12,5.64v4.45H9A20.43,20.43,0,0,0,13.13,393.48ZM5.92,408.14q.12,3,.24,6c.75.08,1.64.14,2.67.2s2.08.09,3.14.09a10.21,10.21,0,0,0,3.65-.65,8.7,8.7,0,0,0,3.06-1.93,9.41,9.41,0,0,0,2.08-3.14,11.18,11.18,0,0,0,.77-4.25,8.48,8.48,0,0,0-.92-4.18A6.37,6.37,0,0,0,18,397.73a12.54,12.54,0,0,0-4.13-1.28,36.41,36.41,0,0,0-5.37-.36H5.8v6.06C5.8,404.17,5.84,406.16,5.92,408.14Z"/><path class="cls-6" d="M55.18,382.35c1.11,2.68,2.23,5.38,3.38,8.11s2.3,5.44,3.44,8.13,2.23,5.19,3.24,7.5,1.92,4.39,2.73,6.21,1.47,3.2,2,4.15a11.13,11.13,0,0,0-1.58-.12H65.24a10.89,10.89,0,0,0-1.57.12c-.28-.91-.66-2-1.13-3.29s-1-2.63-1.57-4-1.16-2.83-1.76-4.27-1.14-2.82-1.66-4.13c-1.26,0-2.55-.07-3.85-.09l-3.92,0c-1.23,0-2.43,0-3.62,0l-3.62.09q-1.9,4.63-3.44,8.82t-2.32,6.91a20.14,20.14,0,0,0-4.39,0q4.8-10.38,9.38-20.65T51,374.91h1.12ZM44.08,373H41.89L49.18,363h4l7.3,9.91H58.27l-7.13-6.23Zm-.41,25c1,0,2.09,0,3.2.06s2.18.06,3.21.06l3.32,0c1.11,0,2.21-.05,3.32-.09l-6.59-15.07Z"/><path class="cls-6" d="M84.85,378.76l-3.23,0c-1.13,0-2.26.06-3.38.12S76,379,75,379.12s-2,.18-2.82.3a7.2,7.2,0,0,0,.3-1.9,8.05,8.05,0,0,0-.3-1.84l7.66.21q3.73.09,7.65.09t7.66-.09l7.66-.21a8.15,8.15,0,0,0-.3,1.9,7,7,0,0,0,.3,1.84q-1.26-.18-2.82-.3t-3.27-.21c-1.13-.06-2.25-.1-3.38-.12l-3.23,0q-.18,6.12-.18,12.29v10.21q0,3.92.15,7.71t.32,7.48q-1.37-.12-2.91-.12c-1,0-2,0-2.9.12q.16-3.68.32-7.48t.15-7.71V391.05Q85,384.87,84.85,378.76Z"/><path class="cls-6" d="M109.63,383.36q-.15-3.76-.33-7.68l1.49.21a11.28,11.28,0,0,0,1.42.09,11.44,11.44,0,0,0,1.43-.09l1.48-.21q-.18,3.92-.33,7.68t-.15,7.69v10.21q0,3.92.15,7.71t.33,7.48q-1.37-.12-2.91-.12t-2.91.12q.18-3.68.33-7.48t.15-7.71V391.05Q109.78,387.14,109.63,383.36Z"/><path class="cls-6" d="M137.73,400.78v3.68H123v-3.68Z"/><path class="cls-6" d="M145.89,383.36q-.15-3.76-.33-7.68,1.42.12,2.88.21t2.88.09c.48,0,1.05,0,1.72-.06s1.36-.07,2.05-.09,1.35-.05,2-.09,1.17-.06,1.6-.06c.59,0,1.33,0,2.2.06a19,19,0,0,1,2.76.35,16.09,16.09,0,0,1,2.87.89,8.43,8.43,0,0,1,2.59,1.72,8.74,8.74,0,0,1,1.87,2.82,12.75,12.75,0,0,1-1,10.54,12.35,12.35,0,0,1-4.16,3.8,16.51,16.51,0,0,1-5.22,1.84,29.89,29.89,0,0,1-4.9.47q-1.36,0-2.49,0t-2.31-.15v3.27q0,3.92.14,7.71t.33,7.48q-1.37-.12-2.91-.12t-2.91.12q.18-3.68.33-7.48t.15-7.71V391.05Q146,387.14,145.89,383.36ZM155.12,396a18.12,18.12,0,0,0,3.8-.42,10.28,10.28,0,0,0,3.59-1.51,8.31,8.31,0,0,0,2.67-3,12.41,12.41,0,0,0,.33-9.11,5.86,5.86,0,0,0-2-2.49,7.67,7.67,0,0,0-3.12-1.22,23.67,23.67,0,0,0-4.15-.33h-5.34V395.5A18.11,18.11,0,0,0,155.12,396Z"/><path class="cls-6" d="M208.53,416.45a10.89,10.89,0,0,0-1.57-.12h-3.15a11.1,11.1,0,0,0-1.57.12c-.27-.91-.65-2-1.13-3.29s-1-2.63-1.57-4-1.15-2.83-1.75-4.27-1.15-2.82-1.66-4.13c-1.27,0-2.55-.07-3.86-.09s-2.61,0-3.92,0-2.43,0-3.62,0l-3.62.09q-1.89,4.63-3.44,8.82t-2.31,6.91a18.84,18.84,0,0,0-2.2-.12,18.54,18.54,0,0,0-2.19.12q4.8-10.38,9.37-20.65t9.2-20.89h1.13l3.09,7.44q1.65,4,3.38,8.11c1.15,2.73,2.29,5.44,3.44,8.13s2.23,5.19,3.23,7.5,1.92,4.39,2.74,6.21S208,415.5,208.53,416.45ZM182.24,398q1.55,0,3.21.06c1.1,0,2.17.06,3.2.06s2.22,0,3.33,0l3.32-.09-6.59-15.07Z"/><path class="cls-6" d="M219.13,396.84c-.77-1.29-1.63-2.71-2.55-4.28s-1.91-3.2-2.94-4.92l-2.94-4.93c-.93-1.56-1.77-3-2.52-4.21s-1.33-2.19-1.72-2.82l1.63.21a14.81,14.81,0,0,0,3.26,0l1.63-.21q2.69,5.16,5.44,10.15t5.84,10.38q1.37-2.13,2.85-4.69t3-5.22q1.48-2.67,2.85-5.37t2.55-5.25a9.08,9.08,0,0,0,4.63,0q-2.85,4.33-5.11,7.83c-1.5,2.34-2.83,4.45-4,6.35s-2.16,3.61-3,5.14-1.62,2.89-2.26,4.12c0,1.46,0,3,0,4.69s0,3.29.09,4.9.09,3.08.15,4.45.13,2.46.21,3.29q-1.36-.12-2.91-.12t-2.91.12a74.79,74.79,0,0,0,.42-7.48c0-2.93.06-6,.06-9.2Z"/><path class="cls-6" d="M247.2,410.9a9.71,9.71,0,0,0,2,2,10,10,0,0,0,6.14,2,8.89,8.89,0,0,0,3.53-.68,7.85,7.85,0,0,0,4.36-4.58,9.26,9.26,0,0,0,.6-3.35,6.37,6.37,0,0,0-1.4-4.33,11.51,11.51,0,0,0-3.47-2.67,41.08,41.08,0,0,0-4.48-2,22.3,22.3,0,0,1-4.48-2.23,11.63,11.63,0,0,1-3.47-3.41,9.85,9.85,0,0,1-1.4-5.58,11.35,11.35,0,0,1,.89-4.54,9.86,9.86,0,0,1,2.58-3.53,12.18,12.18,0,0,1,4.07-2.31,17.88,17.88,0,0,1,10.27-.15,12.12,12.12,0,0,1,3.85,2.11,13.45,13.45,0,0,0-.89,2.13c-.23.75-.47,1.7-.71,2.85h-.71a16.6,16.6,0,0,0-.8-1.81,7,7,0,0,0-1.37-1.81,7.5,7.5,0,0,0-2-1.39,6.59,6.59,0,0,0-2.85-.57,8.41,8.41,0,0,0-3.06.54,7.22,7.22,0,0,0-2.43,1.51,6.62,6.62,0,0,0-1.61,2.34,7.81,7.81,0,0,0-.56,3,6.44,6.44,0,0,0,1.39,4.39,11.84,11.84,0,0,0,3.48,2.7,32.71,32.71,0,0,0,4.48,2,26,26,0,0,1,4.48,2.11,11.54,11.54,0,0,1,3.47,3.2,8.85,8.85,0,0,1,1.39,5.23,13.72,13.72,0,0,1-1,5.16,12.29,12.29,0,0,1-2.85,4.24,12.63,12.63,0,0,1-4.57,2.79,18,18,0,0,1-6.15,1,15.34,15.34,0,0,1-6-1,16.3,16.3,0,0,1-3.83-2.22,13.66,13.66,0,0,0,.74-2.47q.21-1.1.39-2.82h.71A11.49,11.49,0,0,0,247.2,410.9Z"/><path class="cls-6" d="M309.66,416.45a11,11,0,0,0-1.57-.12h-3.15a11,11,0,0,0-1.57.12c-.28-.91-.65-2-1.13-3.29s-1-2.63-1.57-4l-1.75-4.27c-.59-1.45-1.15-2.82-1.66-4.13-1.27,0-2.55-.07-3.86-.09s-2.61,0-3.92,0-2.43,0-3.62,0l-3.62.09q-1.89,4.63-3.44,8.82t-2.31,6.91a20.23,20.23,0,0,0-4.4,0q4.82-10.38,9.38-20.65t9.2-20.89h1.13q1.43,3.43,3.08,7.44t3.39,8.11q1.71,4.1,3.44,8.13c1.15,2.69,2.22,5.19,3.23,7.5s1.92,4.39,2.73,6.21S309.15,415.5,309.66,416.45ZM283.37,398q1.54,0,3.21.06c1.1,0,2.17.06,3.2.06s2.22,0,3.32,0l3.33-.09-6.59-15.07Z"/><path class="cls-6" d="M345.6,380.78a16.44,16.44,0,0,0-3-1.87,18.58,18.58,0,0,0-3.62-1.3,17,17,0,0,0-4.24-.51,20.4,20.4,0,0,0-6.86,1.13,14.59,14.59,0,0,0-5.52,3.47,16.33,16.33,0,0,0-3.68,5.94,27.27,27.27,0,0,0-.15,16.35,15.69,15.69,0,0,0,3.48,5.9,15.43,15.43,0,0,0,5.57,3.71,20.11,20.11,0,0,0,7.45,1.31q1.24,0,2.61-.12t2.64-.36a18.82,18.82,0,0,0,2.38-.59,8.81,8.81,0,0,0,1.87-.83c0-1.19.07-2.38.09-3.56s0-2.4,0-3.62c0-1.39,0-2.77-.09-4.16s-.13-2.71-.21-4a15.14,15.14,0,0,0,2.85.29c.43,0,.87,0,1.3-.06a7.09,7.09,0,0,0,1.25-.23c-.08.91-.14,2.34-.18,4.3s-.06,4.54-.06,7.74c0,.8,0,1.6,0,2.41s0,1.61,0,2.4c-.83.32-1.87.64-3.11,1a37.21,37.21,0,0,1-4,.83c-1.41.22-2.81.42-4.21.59a30.41,30.41,0,0,1-3.83.27,33.11,33.11,0,0,1-9.53-1.27,18.62,18.62,0,0,1-7.21-3.95,17.69,17.69,0,0,1-4.57-6.65,24.42,24.42,0,0,1-1.6-9.2,23,23,0,0,1,1.66-9,18.53,18.53,0,0,1,4.69-6.67,20.34,20.34,0,0,1,7.33-4.16,30.17,30.17,0,0,1,9.53-1.42,40.81,40.81,0,0,1,5.37.32,30.13,30.13,0,0,1,4.15.86,29.41,29.41,0,0,1,3.18,1.13c.91.4,1.72.77,2.43,1.13a10.08,10.08,0,0,0-.86,2.14,13.56,13.56,0,0,0-.51,2.43h-.71A15.22,15.22,0,0,0,345.6,380.78Z"/><path class="cls-6" d="M359.84,383.27q-.15-3.79-.33-7.59l5.32.21q2.64.09,5.31.09t5.28-.09l5.28-.21a8.89,8.89,0,0,0,0,3.56l-3.47-.24-3.32-.24c-1.17-.07-2.45-.14-3.83-.2s-3.05-.09-5-.09c0,1.26-.09,2.47-.15,3.62s-.09,2.45-.09,3.91,0,3.05,0,4.52,0,2.57,0,3.32c1.74,0,3.31,0,4.69-.06s2.65-.09,3.8-.15l3.18-.18c1-.06,1.89-.13,2.76-.2a9.19,9.19,0,0,0-.18,1.84,9,9,0,0,0,.18,1.78c-1-.12-2.23-.22-3.59-.3s-2.73-.13-4.1-.15l-3.86-.06-2.88,0c0,.36,0,.74,0,1.16s0,.94,0,1.57v5.88q0,3.38,0,5.58c0,1.46.05,2.57.09,3.32h4.16c1.5,0,3,0,4.42-.09s2.81-.14,4.09-.24a26.6,26.6,0,0,0,3.36-.44,4.11,4.11,0,0,0-.15.92c0,.33,0,.64,0,.92a5.41,5.41,0,0,0,.18,1.54q-2.67-.12-5.31-.12H364.91q-2.67,0-5.4.12.18-3.79.33-7.57t.15-7.68V391Q360,387.08,359.84,383.27Z"/></g></g></svg>