<svg xmlns="http://www.w3.org/2000/svg" viewBox="0 0 406.68 340.14"><defs><style>.cls-1{fill:#f6f6f6;}.cls-2,.cls-3{fill:none;stroke-miterlimit:10;stroke-width:2.24px;}.cls-2{stroke:#f39200;}.cls-3{stroke:#95c11f;}</style></defs><g id="Calque_2" data-name="Calque 2"><g id="Calque_1-2" data-name="Calque 1"><path class="cls-1" d="M69,273.85,82.47,259.5a75.48,75.48,0,0,0,13.75,3.34,22.48,22.48,0,0,0,9.78-11.1q2.61-6.75,4.84-26.46l8-72.31Q75,158.12,75,184.72a37.56,37.56,0,0,0,4.27,16.6L63.58,216.07q-2.13-4.74-2.13-14,0-29.07,22.64-44.45t65.28-15.36q70.38,0,70.38,48.95,0,29.28-19.77,54-26.28,32.67-80.07,32.67A369.56,369.56,0,0,1,69,273.85ZM134.7,150.74l-8.06,72.84-1,9.12q-1.45,12.69-5.43,18.52t-15.61,12.6a288.78,288.78,0,0,0,39.66,2.95q17.18,0,26.53-4.8t18.29-18.19A73.31,73.31,0,0,0,201.62,202q0-51.22-63.71-51.22Z"/><path class="cls-1" d="M274.28,211.58q-1.65,13.77-5.95,19.87t-16.61,11.93l-7.65-.29q11.73-7.47,14.54-30.54l.84-8.61,1-9.4,7.52-67.86H251.47q-40.59,0-40.59,26.85a34.69,34.69,0,0,0,4.56,16.58l-15.8,15.12a52.12,52.12,0,0,1-2.23-14.83q0-26.65,22.19-43.14Q236.19,115,265.26,115h57.88q36,0,36-22.2a22.34,22.34,0,0,0-5.33-14.34L366,66.77q4.26,5.82,4.27,14.93,0,19.1-17.22,32t-42.53,13h-27l-7.26,65.53L275.12,203Z"/><line class="cls-2" x1="293.52" y1="300.1" x2="47.55" y2="300.1"/><line class="cls-3" x1="293.52" y1="338.89" x2="47.55" y2="338.89"/><path class="cls-1" d="M48.29,311.45c-.07-1.63-.14-3.25-.21-4.9.66.06,1.34.1,2,.14s1.36.06,2,.06a20,20,0,0,0,2-.1c.69-.06,1.36-.1,2-.1a18.81,18.81,0,0,1,3.1.25,8,8,0,0,1,2.57.89,4.86,4.86,0,0,1,1.76,1.7,5.1,5.1,0,0,1,.65,2.67,5.72,5.72,0,0,1-1.78,4.45,10.19,10.19,0,0,1-4.65,2.25v.08a9.39,9.39,0,0,1,5.38,1.65c1.31,1,2,2.59,2,4.78a6.84,6.84,0,0,1-.88,3.59,7.11,7.11,0,0,1-2.3,2.36,9.34,9.34,0,0,1-3.11,1.26,16.44,16.44,0,0,1-3.39.37c-.61,0-1.23,0-1.86,0s-1.25,0-1.85,0H49.93c-.63,0-1.24,0-1.85.08l.21-4.89q.09-2.41.09-4.95v-6.58Q48.38,313.91,48.29,311.45Zm8,6.58a7.11,7.11,0,0,0,2.36-.9,4.86,4.86,0,0,0,1.66-1.68,5.1,5.1,0,0,0,.63-2.65,4.81,4.81,0,0,0-.57-2.51,4.25,4.25,0,0,0-1.46-1.46,5.73,5.73,0,0,0-2-.69,14.88,14.88,0,0,0-2.22-.16c-.66,0-1.22,0-1.68,0s-.87.09-1.22.13c0,1.23-.11,2.44-.15,3.64s-.08,2.41-.08,3.63v2.88h2.06A12.52,12.52,0,0,0,56.24,318Zm-4.64,9.45c0,1.29.1,2.57.15,3.88l1.72.13c.67,0,1.34.05,2,.05a6.73,6.73,0,0,0,2.35-.42,5.54,5.54,0,0,0,2-1.24,5.9,5.9,0,0,0,1.34-2,7.23,7.23,0,0,0,.49-2.74,5.4,5.4,0,0,0-.59-2.7,4.1,4.1,0,0,0-1.7-1.65A8.16,8.16,0,0,0,56.7,320a22.72,22.72,0,0,0-3.46-.23H51.52v3.9C51.52,324.93,51.54,326.22,51.6,327.48Z"/><path class="cls-1" d="M83.35,310.87l2.19,5.21q1.09,2.64,2.21,5.25c.74,1.74,1.44,3.34,2.09,4.84s1.23,2.82,1.76,4,1,2.06,1.28,2.68a7.33,7.33,0,0,0-1-.08h-2a7.21,7.21,0,0,0-1,.08c-.18-.59-.42-1.3-.73-2.13s-.64-1.69-1-2.6-.74-1.82-1.13-2.76-.74-1.81-1.06-2.66l-2.49-.05c-.85,0-1.69,0-2.53,0s-1.57,0-2.33,0l-2.34.05c-.81,2-1.55,3.89-2.21,5.69s-1.17,3.28-1.5,4.46a12.33,12.33,0,0,0-1.41-.08,12.51,12.51,0,0,0-1.42.08q3.09-6.71,6-13.32t5.93-13.47h.72Q82.29,308.28,83.35,310.87Zm-7.42,10.07c.66,0,1.35,0,2.07,0s1.4,0,2.06,0l2.15,0,2.14-.06-4.24-9.72Z"/><path class="cls-1" d="M102.48,308.55H100.4c-.73,0-1.46,0-2.18.08l-2.1.14c-.69.05-1.29.11-1.82.19a4.56,4.56,0,0,0,.19-1.23,5.23,5.23,0,0,0-.19-1.19c1.68.06,3.32.1,4.93.14s3.25.06,4.94.06,3.33,0,4.94-.06,3.24-.08,4.93-.14a5.35,5.35,0,0,0-.19,1.23A4.41,4.41,0,0,0,114,309c-.53-.08-1.14-.14-1.82-.19l-2.1-.14c-.73,0-1.45-.06-2.19-.08h-2.08q-.1,3.93-.11,7.92v6.58c0,1.68,0,3.34.09,5s.13,3.24.21,4.83c-.58-.05-1.2-.08-1.87-.08s-1.29,0-1.87.08c.08-1.59.14-3.19.2-4.83s.1-3.29.1-5v-6.58Q102.6,312.48,102.48,308.55Z"/><path class="cls-1" d="M118.46,311.51c-.07-1.62-.14-3.26-.21-5,.34.06.65.1,1,.14a7,7,0,0,0,1.83,0c.31,0,.63-.08,1-.14-.08,1.7-.15,3.34-.21,5s-.1,3.28-.1,5v6.58c0,1.68,0,3.34.1,5s.13,3.24.21,4.83c-.59-.05-1.21-.08-1.87-.08s-1.29,0-1.88.08c.07-1.59.14-3.19.21-4.83s.09-3.29.09-5v-6.58C118.55,314.79,118.52,313.13,118.46,311.51Z"/><path class="cls-1" d="M136.58,322.74v2.38h-9.53v-2.38Z"/><path class="cls-1" d="M141.85,311.51c-.08-1.62-.15-3.26-.22-5,.61.06,1.23.1,1.85.14s1.25.06,1.86.06c.31,0,.68,0,1.11,0s.87,0,1.32-.06.87,0,1.28-.06.75,0,1,0,.85,0,1.41,0a13.51,13.51,0,0,1,1.79.23,9.89,9.89,0,0,1,1.85.58,5,5,0,0,1,1.66,1.11,5.47,5.47,0,0,1,1.21,1.81,7.17,7.17,0,0,1,.46,2.71,7,7,0,0,1-1.1,4.09,7.89,7.89,0,0,1-2.67,2.45,10.42,10.42,0,0,1-3.37,1.18,18.25,18.25,0,0,1-3.16.3h-1.6c-.49,0-1-.06-1.49-.11v2.11c0,1.68,0,3.34.09,5s.13,3.24.21,4.83c-.59-.05-1.21-.08-1.88-.08s-1.29,0-1.87.08c.07-1.59.14-3.19.22-4.83s.08-3.29.08-5v-6.58C141.93,314.79,141.91,313.13,141.85,311.51Zm5.94,8.13a11.07,11.07,0,0,0,2.45-.27,6.39,6.39,0,0,0,2.31-1,5.27,5.27,0,0,0,1.72-1.95,8.05,8.05,0,0,0,.22-5.87A3.79,3.79,0,0,0,153.2,309a4.92,4.92,0,0,0-2-.78,15.43,15.43,0,0,0-2.68-.21h-3.43v11.36A11.43,11.43,0,0,0,147.79,319.64Z"/><path class="cls-1" d="M182.23,332.85a7.47,7.47,0,0,0-1-.08h-2a7.35,7.35,0,0,0-1,.08q-.27-.89-.72-2.13c-.31-.83-.65-1.69-1-2.6s-.74-1.82-1.13-2.76-.73-1.81-1.07-2.66l-2.48-.05c-.85,0-1.69,0-2.53,0s-1.57,0-2.33,0l-2.34.05c-.81,2-1.56,3.89-2.22,5.69s-1.16,3.28-1.49,4.46a12.38,12.38,0,0,0-1.42-.08,12.2,12.2,0,0,0-1.41.08q3.09-6.71,6-13.32T170,306.06h.72q.91,2.22,2,4.81c.71,1.72,1.44,3.45,2.18,5.21l2.22,5.25c.74,1.74,1.43,3.34,2.09,4.84s1.23,2.82,1.76,4S181.89,332.23,182.23,332.85Zm-16.95-11.91c.66,0,1.35,0,2.06,0s1.4,0,2.07,0l2.14,0c.72,0,1.43,0,2.15-.06l-4.25-9.72Z"/><path class="cls-1" d="M189.06,320.2c-.5-.84-1.05-1.75-1.64-2.75s-1.24-2.07-1.9-3.18-1.3-2.16-1.89-3.18-1.14-1.91-1.63-2.72-.86-1.4-1.11-1.82c.35.06.7.1,1.05.14a9.31,9.31,0,0,0,2.11,0c.34,0,.7-.08,1-.14,1.15,2.23,2.32,4.41,3.5,6.56s2.44,4.36,3.77,6.68c.59-.91,1.2-1.92,1.83-3s1.28-2.21,1.92-3.37,1.25-2.29,1.84-3.45,1.13-2.3,1.64-3.4a7.28,7.28,0,0,0,1.49.2,7.36,7.36,0,0,0,1.5-.2c-1.23,1.87-2.33,3.55-3.3,5.06s-1.82,2.87-2.56,4.1-1.38,2.32-1.95,3.3-1.05,1.87-1.46,2.66c0,.94,0,1.95,0,3s0,2.11.06,3.16.06,2,.1,2.86.08,1.59.13,2.13c-.59-.05-1.21-.08-1.87-.08s-1.29,0-1.88.08a48.29,48.29,0,0,0,.27-4.83c0-1.88,0-3.87,0-5.92C189.93,321.66,189.56,321,189.06,320.2Z"/><path class="cls-1" d="M207.16,329.26a6.41,6.41,0,0,0,1.26,1.29,6.35,6.35,0,0,0,4,1.3,5.59,5.59,0,0,0,2.28-.44,5,5,0,0,0,1.72-1.19,5.18,5.18,0,0,0,1.09-1.76,6.13,6.13,0,0,0,.38-2.16,4.09,4.09,0,0,0-.9-2.79,7.19,7.19,0,0,0-2.24-1.72,26.7,26.7,0,0,0-2.89-1.27,14.87,14.87,0,0,1-2.88-1.43,7.46,7.46,0,0,1-2.24-2.2,6.38,6.38,0,0,1-.9-3.6,7.28,7.28,0,0,1,.57-2.92,6.27,6.27,0,0,1,1.67-2.28,7.82,7.82,0,0,1,2.62-1.5,10.31,10.31,0,0,1,3.44-.53,10,10,0,0,1,3.18.45,7.85,7.85,0,0,1,2.49,1.35,7.05,7.05,0,0,0-.58,1.38,18.13,18.13,0,0,0-.46,1.84h-.46a10.17,10.17,0,0,0-.51-1.17,4.44,4.44,0,0,0-.88-1.17,4.81,4.81,0,0,0-1.32-.9,4.31,4.31,0,0,0-1.84-.36,5.43,5.43,0,0,0-2,.34,4.83,4.83,0,0,0-1.57,1,4.31,4.31,0,0,0-1,1.52,4.78,4.78,0,0,0-.37,1.91,4.16,4.16,0,0,0,.9,2.83,7.69,7.69,0,0,0,2.24,1.74,22.46,22.46,0,0,0,2.89,1.26,16.36,16.36,0,0,1,2.89,1.37,7.29,7.29,0,0,1,2.23,2.05,5.65,5.65,0,0,1,.91,3.37,8.68,8.68,0,0,1-.64,3.34,7.77,7.77,0,0,1-1.83,2.73,8.22,8.22,0,0,1-3,1.8,11.59,11.59,0,0,1-4,.63,10,10,0,0,1-3.85-.63,10.77,10.77,0,0,1-2.46-1.43,8.4,8.4,0,0,0,.47-1.6,16.17,16.17,0,0,0,.25-1.81h.46A7.28,7.28,0,0,0,207.16,329.26Z"/><path class="cls-1" d="M247.43,332.85a7.47,7.47,0,0,0-1-.08h-2a7.59,7.59,0,0,0-1,.08q-.27-.89-.72-2.13c-.31-.83-.65-1.69-1-2.6s-.75-1.82-1.12-2.76-.75-1.81-1.08-2.66l-2.48-.05c-.84,0-1.69,0-2.53,0s-1.57,0-2.34,0l-2.32.05c-.83,2-1.57,3.89-2.23,5.69s-1.16,3.28-1.49,4.46a12.55,12.55,0,0,0-2.83,0q3.1-6.71,6-13.32t5.92-13.47h.73c.62,1.48,1.28,3.08,2,4.81s1.43,3.45,2.18,5.21,1.47,3.51,2.21,5.25,1.44,3.34,2.09,4.84,1.24,2.82,1.75,4S247.1,332.23,247.43,332.85Zm-17-11.91c.66,0,1.35,0,2.06,0s1.41,0,2.07,0l2.14,0c.72,0,1.43,0,2.14-.06l-4.24-9.72Z"/><path class="cls-1" d="M270.6,309.85a10.32,10.32,0,0,0-1.91-1.21,12.89,12.89,0,0,0-2.34-.85,11.36,11.36,0,0,0-2.73-.31,13.28,13.28,0,0,0-4.43.72,9.49,9.49,0,0,0-3.55,2.24,10.46,10.46,0,0,0-2.37,3.83,15.59,15.59,0,0,0-.86,5.49,16,16,0,0,0,.75,5.05,10.33,10.33,0,0,0,2.25,3.81A10,10,0,0,0,259,331a12.81,12.81,0,0,0,4.81.84c.53,0,1.1,0,1.68-.07s1.15-.13,1.7-.24a12.84,12.84,0,0,0,1.54-.38,5.61,5.61,0,0,0,1.2-.53l.06-2.3c0-.76,0-1.54,0-2.33s0-1.79-.05-2.68-.09-1.75-.14-2.57a9.2,9.2,0,0,0,1.84.19l.85,0a4.36,4.36,0,0,0,.8-.16c-.05.58-.09,1.52-.12,2.77s0,2.94,0,5c0,.52,0,1,0,1.55s0,1,0,1.55c-.54.2-1.21.42-2,.63a23.11,23.11,0,0,1-2.56.53c-.91.14-1.81.28-2.72.39a20.64,20.64,0,0,1-2.46.17,21.17,21.17,0,0,1-6.14-.82,12,12,0,0,1-4.66-2.55,11.26,11.26,0,0,1-2.94-4.28,15.77,15.77,0,0,1-1-5.93,14.88,14.88,0,0,1,1.07-5.8,12.07,12.07,0,0,1,3-4.3,12.93,12.93,0,0,1,4.72-2.68,19.6,19.6,0,0,1,6.15-.92,25.5,25.5,0,0,1,3.46.21,18.82,18.82,0,0,1,2.68.55,16.32,16.32,0,0,1,2,.73c.59.26,1.11.51,1.57.73a6.59,6.59,0,0,0-.55,1.38,7.6,7.6,0,0,0-.32,1.56H272A10.52,10.52,0,0,0,270.6,309.85Z"/><path class="cls-1" d="M279.78,311.45c-.06-1.63-.13-3.25-.21-4.9,1.15.06,2.29.1,3.42.14s2.28.06,3.43.06,2.28,0,3.41-.06,2.26-.08,3.4-.14a5.63,5.63,0,0,0-.11,1.16,5.51,5.51,0,0,0,.11,1.14c-.81-.05-1.56-.1-2.24-.16l-2.14-.14-2.47-.14q-1.33-.06-3.21-.06c0,.83-.06,1.61-.1,2.34s-.05,1.58-.05,2.52,0,2,0,2.92,0,1.65,0,2.14c1.12,0,2.12,0,3,0s1.7-.06,2.45-.1l2-.11,1.78-.13a6.47,6.47,0,0,0-.11,1.18,6.2,6.2,0,0,0,.11,1.14q-1-.1-2.31-.18c-.88,0-1.76-.09-2.64-.1l-2.49,0-1.85,0c0,.23,0,.48,0,.75s0,.61,0,1v3.79c0,1.46,0,2.65,0,3.6s0,1.65,0,2.14h2.68c1,0,1.93,0,2.85-.06s1.81-.08,2.64-.15a17.94,17.94,0,0,0,2.16-.28,3.19,3.19,0,0,0-.09.59c0,.21,0,.41,0,.59a3.9,3.9,0,0,0,.11,1c-1.14-.05-2.28-.08-3.42-.08h-6.94c-1.15,0-2.31,0-3.49.08q.12-2.44.21-4.89c.06-1.61.1-3.26.1-4.95v-6.58C279.88,314.75,279.84,313.09,279.78,311.45Z"/><path class="cls-1" d="M12.76,340.14H39.29l.13,0v-121c0-.8-4.2-2.48-4.92-2.47l-30.08.23-4.29,0,4.92,2.47,18.72-36L53.65,126l4.62-8.86c.63-1.23,1.23-3.18,2.18-4.2.26-.28-.08-.14.59-.18,1.4-.09,2.85,0,4.25,0H174.48a10.52,10.52,0,0,0,2.38,0c.09,0,.22,0,.3,0,.61-.27,1.35-1.7,1.83-2.27a32.19,32.19,0,0,1,3-3.08c.11-.11-1.12-.83-1.14-.84-9.33-5.1-10.4-18-2.89-25.19a18.06,18.06,0,0,1,4.17-2.93l.52-.25c.6-.06.74-.38.43-1,.14-.89-.07-1.95,0-2.88a25.39,25.39,0,0,1,.6-3.66A27.78,27.78,0,0,1,189.94,59a38,38,0,0,1,11.53-8.7c.92-.46,1.85-.89,2.8-1.29a6.87,6.87,0,0,0,1.76-.69,5.22,5.22,0,0,0,.4-1.34,30,30,0,0,1,2.51-5.57c4.25-7.35,11.25-12.82,18.83-16.44a64.78,64.78,0,0,1,35-5.49l.12,0c.57-9,11.52-13.55,19-15.37a59.13,59.13,0,0,1,18.89-1.38c5.15.43,11.23,1.25,15.69,4,3.69,2.32,6.91,6,7.08,10.51,0,.52,2.1,1.35,2.39,1.49a66.17,66.17,0,0,1,7,3.83c2.38,1.49,4.54,3.26,7.17,4.31,2,.79,4.15-.27,6.24-.31a28.07,28.07,0,0,1,7.84,1,14.57,14.57,0,0,1,8.65,6.95,4.23,4.23,0,0,0,1.25,1.69A22.35,22.35,0,0,0,367.76,38a17.89,17.89,0,0,1,5.52,4.46c.65.75,1.18,1.56,1.76,2.36a6.38,6.38,0,0,0,2.65,1.87,36.51,36.51,0,0,0,6,1.84,19.94,19.94,0,0,1,8.64,5.29c5.19,5.19,7.89,12.21,8.84,19.39a43.54,43.54,0,0,1-6.48,29.32l.06.11a12.49,12.49,0,0,1,1.76,9.71,13.31,13.31,0,0,1-2.09,4.48c-.25.37-1.16,1.2-1.18,1.59,0,.21.18.46.22.66.32,1.63,1.28,3.25,1.73,4.87a26.63,26.63,0,0,1,1,7.94A21.31,21.31,0,0,1,391,145.59c-3.52,4.2-8.29,7.72-13.83,8.5l-.12,0a46.93,46.93,0,0,1-15.38,23.53A37.43,37.43,0,0,1,346,185a42.9,42.9,0,0,1-9.59.85c-3.6-.07-7.06-.62-10.66-.11-8.26,1.15-15.88,4.48-24.36,2.8l-.12,0V335.41a8.28,8.28,0,0,0,0,2,1.13,1.13,0,0,1,0,.26c0,.8,4.19,2.48,4.91,2.48h26.29c.37,0-1.46-1.11-1.6-1.19-.86-.45-2.16-1.32-3.19-1.32H301.38l4.92,2.48V193.42a7.15,7.15,0,0,1,0-2c0-.1-.06-.32,0-.4s4.63.53,5.25.53c4.82,0,9.46-1.32,14.12-2.41A41.76,41.76,0,0,1,333.2,188c2.67-.13,5.32.32,8,.37A42.36,42.36,0,0,0,354,186.71a39,39,0,0,0,18.78-12.52,48.5,48.5,0,0,0,5.76-8.71c.65-1.27,1.25-2.56,1.79-3.87a41.67,41.67,0,0,1,1.58-4.4c.5-.88,1.41-.81,2.33-1.06a18.08,18.08,0,0,0,3.06-1.13,24.12,24.12,0,0,0,5.85-4,26.09,26.09,0,0,0,6.72-9c1.76-4.21,1.78-9.38.86-13.79a30.57,30.57,0,0,0-1.33-4.5c-.21-.58-.45-1.16-.67-1.74-.33-.84-.5-.93,0-1.69,1.42-2.16,2.72-4,3.1-6.69a13.22,13.22,0,0,0-1.38-7.52c-.64-1.43-.15-1.89.54-3.11s1.17-2.2,1.69-3.34a49.05,49.05,0,0,0,2.82-8.09,42,42,0,0,0-2.09-26.44c-3.19-7.28-8.86-12.32-15.91-15.79a48.81,48.81,0,0,0-12-4.14l4.86,2.36c-3.5-5.66-9.41-9.08-15.46-11.48l3.68,2.07C366,33,361.27,29.92,356.27,27.58a36.65,36.65,0,0,0-8.64-2.91,29.39,29.39,0,0,0-11.06.14L341.21,27a97,97,0,0,0-15-8.75l2.39,1.49c-.23-6.16-5.68-10.21-10.62-12.91A55.73,55.73,0,0,0,294,.08c-8.52-.42-17.52.73-25.28,4.44a23.45,23.45,0,0,0-8,5.88,12.92,12.92,0,0,0-2.06,3.37,9.86,9.86,0,0,0-.53,1.78,3.85,3.85,0,0,1-.14.92c-.43.7-1.34.37-2.08.3-15.87-1.56-33.76,3-45.51,14.16a36.1,36.1,0,0,0-6.42,8,29.61,29.61,0,0,0-2,4.25,17.42,17.42,0,0,1-.76,2.21c-.52.93-2,1.18-3,1.64-7.07,3.19-13.55,8.31-17.2,15.26A23.06,23.06,0,0,0,178,74.43l0,.36c.32.57.17.89-.43.95a9.53,9.53,0,0,1-1.52.8,18.14,18.14,0,0,0-2.76,2,16.55,16.55,0,0,0-4,5.37,15.74,15.74,0,0,0-.15,12.94c1.78,4,5.12,6.86,8.91,8.94l-1.13-.84a32.19,32.19,0,0,0-3,3.08c-.4.47-1.14,2-1.59,2.22-.12,0-.32,0-.45,0a13,13,0,0,1-2.72,0H55.65l-.13,0-18.72,36L6.85,203.77,0,216.92c-.22.41,4.35,2.48,4.91,2.47L35,219.16l4.29,0-4.91-2.48V336.83a2.35,2.35,0,0,1,0,.7c-.13.27.25-.08-.15.1a7.78,7.78,0,0,1-2.36,0H8c-.37,0,1.46,1.11,1.6,1.19.86.45,2.17,1.32,3.19,1.32Z"/></g></g></svg>