<?xml version="1.0" encoding="UTF-8"?>
<svg width="159px" height="25px" viewBox="0 0 159 25" version="1.1" xmlns="http://www.w3.org/2000/svg" xmlns:xlink="http://www.w3.org/1999/xlink">
    <!-- Generator: Sketch 49.1 (51147) - http://www.bohemiancoding.com/sketch -->
    <title>LOGO</title>
    <desc>Created with Sketch.</desc>
    <defs>
        <polygon id="path-1" points="0.346204081 0.589725807 25.8326472 0.589725807 25.8326472 24.0836599 0.346204081 24.0836599"></polygon>
        <polygon id="path-3" points="0.363922669 0.30091638 31.5944158 0.30091638 31.5944158 23.071102 0.363922669 23.071102"></polygon>
    </defs>
    <g id="Symbols" stroke="none" stroke-width="1" fill="none" fill-rule="evenodd">
        <g id="HEADER-—-320" transform="translate(-80.000000, -24.000000)">
            <g id="LOGO">
                <g transform="translate(80.000000, 24.000000)">
                    <g id="Group" transform="translate(0.000000, 0.980000)">
                        <polygon id="Fill-1" fill="#FB263B" points="6.70434097 0.252803504 0 11.5781247 6.70434097 22.9040923 12.7797358 22.9040923 14.844853 19.547867 12.6677316 16.0403788 10.8405403 16.0403788 8.20148473 11.5826496 10.8405403 7.12298122 12.7578651 7.12298122 10.627136 3.69306374 12.745273 0.252803504"></polygon>
                        <polygon id="Fill-2" fill="#7D7779" points="14.2676011 0.252803504 12.1507896 3.69306374 14.280856 7.12298122 16.1186513 7.12298122 18.7577069 11.5826496 16.1186513 16.0403788 14.1900598 16.0403788 16.3685067 19.547867 14.3020639 22.9040923 20.1130229 22.9040923 26.8167011 11.5781247 20.1130229 0.252803504"></polygon>
                    </g>
                    <polygon id="Fill-3" fill="#FB263B" points="31.36 0.98 31.36 23.52 47.04 23.52 47.04 16.2854474 39.8843194 16.2854474 39.8843194 0.98"></polygon>
                    <g id="Group-14" transform="translate(49.000000, 0.000000)">
                        <g id="Group-6">
                            <mask id="mask-2" fill="white">
                                <use xlink:href="#path-1"></use>
                            </mask>
                            <g id="Clip-5"></g>
                            <path d="M13.0890963,0.589660716 C6.09124213,0.589660716 0.346204081,5.24042329 0.346204081,12.3971951 C0.346204081,19.7056293 6.060284,24.0836599 13.0890963,24.0836599 C20.1179086,24.0836599 25.8326472,19.7056293 25.8326472,12.3971951 C25.8326472,5.24042329 20.0876092,0.589660716 13.0890963,0.589660716 M13.0890963,8.07904828 C15.7475432,8.07904828 17.3982042,10.1020812 17.3982042,12.5176137 C17.3982042,15.1140996 15.6256867,16.8969462 13.0890963,16.8969462 C10.5525059,16.8969462 8.77998843,15.1140996 8.77998843,12.5176137 C8.77998843,10.1020812 10.4306494,8.07904828 13.0890963,8.07904828" id="Fill-4" fill="#FB263B" mask="url(#mask-2)"></path>
                        </g>
                        <path d="M50.0873521,0.951827867 L42.8747671,11.6118053 L51.0951379,23.7220135 L41.5606934,23.7220135 L38.9332046,18.8896466 C38.6881743,18.4359613 38.5353598,17.9835778 38.4438027,17.5012524 L38.1987725,17.5012524 C38.0466165,18.0441126 37.8325444,18.5576818 37.5578733,19.0699491 L34.9903248,23.7220135 L25.4558802,23.7220135 L33.5240952,11.6118053 L26.2812107,0.951827867 L35.7234396,0.951827867 L37.4353582,4.18295249 C37.7706281,4.78699835 37.9550595,5.42098613 38.1381736,6.05562483 L38.3219463,6.05562483 C38.4754195,5.3910442 38.7500906,4.78699835 39.0550611,4.18295249 L40.6438058,0.951827867 L50.0873521,0.951827867 Z" id="Fill-7" fill="#FB263B"></path>
                        <path d="M61.3415536,20.8828027 L67.6668919,20.8828027 L68.4316235,23.7220786 L77.2935522,23.7220786 L69.0731813,0.951892958 L59.8140664,0.951892958 L51.8064503,23.7220786 L60.6690377,23.7220786 L61.3415536,20.8828027 Z M62.8387413,15.4776337 L64.3675459,8.53110631 L64.6731751,8.53110631 C64.825331,9.49836078 64.9781456,10.4942553 65.2225172,11.4608589 L66.2006623,15.4776337 L62.8387413,15.4776337 Z" id="Fill-9" fill="#FB263B"></path>
                        <g id="Group-13" transform="translate(77.724661, 0.650911)">
                            <mask id="mask-4" fill="white">
                                <use xlink:href="#path-3"></use>
                            </mask>
                            <g id="Clip-12"></g>
                            <path d="M4.09141296,0.30091638 L12.7083113,0.30091638 L15.8871182,12.2594622 L16.1011904,12.2594622 C16.254005,11.2622658 16.4068196,10.2058365 16.6808319,9.23988382 L19.2793386,0.30091638 L27.8053386,0.30091638 L31.5947452,23.071102 L23.4962308,23.071102 L22.3652711,10.5983361 L22.2124565,10.5983361 C22.0596419,11.3533934 21.907486,12.1390436 21.6637731,12.864159 L18.3321516,23.071102 L13.4420848,23.071102 L10.4477093,13.4369611 C10.2026791,12.4710084 9.98926559,11.5649397 9.9286667,10.5983361 L9.65267829,10.5983361 C9.59273808,11.5044049 9.53148051,12.4410665 9.43926481,13.3464844 L8.4617784,23.071102 L0.363922669,23.071102 L4.09141296,0.30091638 Z" id="Fill-11" fill="#FB263B" mask="url(#mask-4)"></path>
                        </g>
                    </g>
                </g>
            </g>
        </g>
    </g>
</svg>