<?xml version="1.0" encoding="utf-8"?>
<!-- Generator: Adobe Illustrator 19.0.0, SVG Export Plug-In . SVG Version: 6.00 Build 0)  -->
<svg version="1.1" id="layer" xmlns="http://www.w3.org/2000/svg" xmlns:xlink="http://www.w3.org/1999/xlink" x="0px" y="0px"
	 viewBox="-153 -46 652 652" style="enable-background:new -153 -46 652 652;" xml:space="preserve">
<style type="text/css">
	.st0{clip-path:url(#SVGID_2_);fill:url(#SVGID_3_);}
	.st1{filter:url(#Adobe_OpacityMaskFilter);}
	.st2{clip-path:url(#SVGID_5_);fill:url(#SVGID_7_);}
	.st3{clip-path:url(#SVGID_5_);mask:url(#SVGID_6_);fill:url(#SVGID_8_);}
	.st4{filter:url(#Adobe_OpacityMaskFilter_1_);}
	.st5{clip-path:url(#SVGID_10_);fill:url(#SVGID_12_);}
	.st6{clip-path:url(#SVGID_10_);mask:url(#SVGID_11_);fill:url(#SVGID_13_);}
	.st7{filter:url(#Adobe_OpacityMaskFilter_2_);}
	.st8{clip-path:url(#SVGID_15_);fill:url(#SVGID_17_);}
	.st9{clip-path:url(#SVGID_15_);mask:url(#SVGID_16_);fill:url(#SVGID_18_);}
	.st10{filter:url(#Adobe_OpacityMaskFilter_3_);}
	.st11{clip-path:url(#SVGID_20_);fill:url(#SVGID_22_);}
	.st12{clip-path:url(#SVGID_20_);mask:url(#SVGID_21_);fill:url(#SVGID_23_);}
	.st13{filter:url(#Adobe_OpacityMaskFilter_4_);}
	.st14{clip-path:url(#SVGID_25_);fill:url(#SVGID_27_);}
	.st15{clip-path:url(#SVGID_25_);mask:url(#SVGID_26_);fill:url(#SVGID_28_);}
	.st16{filter:url(#Adobe_OpacityMaskFilter_5_);}
	.st17{clip-path:url(#SVGID_30_);fill:url(#SVGID_32_);}
	.st18{clip-path:url(#SVGID_30_);mask:url(#SVGID_31_);fill:url(#SVGID_33_);}
	.st19{filter:url(#Adobe_OpacityMaskFilter_6_);}
	.st20{clip-path:url(#SVGID_35_);fill:url(#SVGID_37_);}
	.st21{clip-path:url(#SVGID_35_);mask:url(#SVGID_36_);fill:url(#SVGID_38_);}
	.st22{filter:url(#Adobe_OpacityMaskFilter_7_);}
	.st23{clip-path:url(#SVGID_40_);fill:url(#SVGID_42_);}
	.st24{clip-path:url(#SVGID_40_);mask:url(#SVGID_41_);fill:url(#SVGID_43_);}
	.st25{clip-path:url(#SVGID_45_);fill:url(#SVGID_46_);}
	.st26{clip-path:url(#SVGID_48_);fill:url(#SVGID_49_);}
	.st27{fill:#FFFFFF;}
	.st28{clip-path:url(#SVGID_51_);fill:url(#SVGID_52_);}
	.st29{clip-path:url(#SVGID_54_);fill:url(#SVGID_55_);}
</style>
<g>
	<defs>
		<path id="SVGID_1_" d="M64.1,243.9c0,61.2,49.6,110.8,110.8,110.8c61.2,0,110.8-49.6,110.8-110.8c0-61.2-49.6-110.8-110.8-110.8
			C113.7,133,64.1,182.7,64.1,243.9"/>
	</defs>
	<clipPath id="SVGID_2_">
		<use xlink:href="#SVGID_1_"  style="overflow:visible;"/>
	</clipPath>
	
		<linearGradient id="SVGID_3_" gradientUnits="userSpaceOnUse" x1="-134.6105" y1="698.3261" x2="-129.2243" y2="698.3261" gradientTransform="matrix(26.4548 -31.5276 -31.5276 -26.4547 25681.2773 14558.8828)">
		<stop  offset="0" style="stop-color:#FFFFFF"/>
		<stop  offset="1" style="stop-color:#647D89"/>
	</linearGradient>
	<polygon class="st0" points="-45.1,263.1 155.7,23.9 394.9,224.6 194.2,463.9 	"/>
</g>
<g>
	<defs>
		<path id="SVGID_4_" d="M-57,409.8h5.3h1.9c6.4,0,9.4,2.2,9.4,6.8c0,4.5-3.2,7-8.9,7h-2.1H-57V409.8z M-51.3,404.2H-64v44.3h7.1
			v-19.2h5.2c4.7,0,6.2-0.2,9.1-0.8c5.8-1.4,9.7-5.9,9.7-11.7c0-7.7-6-12.5-15.4-12.5H-51.3z"/>
	</defs>
	<clipPath id="SVGID_5_">
		<use xlink:href="#SVGID_4_"  style="overflow:visible;"/>
	</clipPath>
	<defs>
		<filter id="Adobe_OpacityMaskFilter" filterUnits="userSpaceOnUse" x="-64" y="404.2" width="31" height="44.3">
			<feColorMatrix  type="matrix" values="1 0 0 0 0  0 1 0 0 0  0 0 1 0 0  0 0 0 1 0"/>
		</filter>
	</defs>
	<mask maskUnits="userSpaceOnUse" x="-64" y="404.2" width="31" height="44.3" id="SVGID_6_">
		<g class="st1">
			
				<linearGradient id="SVGID_7_" gradientUnits="userSpaceOnUse" x1="-184.7325" y1="745.9853" x2="-179.3469" y2="745.9853" gradientTransform="matrix(0 -8.227 -8.227 0 6088.6724 -1071.23)">
				<stop  offset="0" style="stop-color:#808080"/>
				<stop  offset="0.6179" style="stop-color:#D1D1D1"/>
				<stop  offset="1" style="stop-color:#FFFFFF"/>
			</linearGradient>
			<rect x="-64" y="404.3" class="st2" width="31" height="44.3"/>
		</g>
	</mask>
	
		<linearGradient id="SVGID_8_" gradientUnits="userSpaceOnUse" x1="-184.7324" y1="745.9852" x2="-179.3463" y2="745.9852" gradientTransform="matrix(0 -8.227 -8.227 0 6088.6729 -1071.2301)">
		<stop  offset="0" style="stop-color:#647D89"/>
		<stop  offset="1" style="stop-color:#647D89"/>
	</linearGradient>
	<rect x="-64" y="404.2" class="st3" width="31" height="44.3"/>
</g>
<g>
	<defs>
		<polygon id="SVGID_9_" points="-8.2,404.2 -8.2,448.6 21.1,448.6 21.1,442.8 -1,442.8 -1,404.2 		"/>
	</defs>
	<clipPath id="SVGID_10_">
		<use xlink:href="#SVGID_9_"  style="overflow:visible;"/>
	</clipPath>
	<defs>
		<filter id="Adobe_OpacityMaskFilter_1_" filterUnits="userSpaceOnUse" x="-8.2" y="404.2" width="29.3" height="44.3">
			<feColorMatrix  type="matrix" values="1 0 0 0 0  0 1 0 0 0  0 0 1 0 0  0 0 0 1 0"/>
		</filter>
	</defs>
	<mask maskUnits="userSpaceOnUse" x="-8.2" y="404.2" width="29.3" height="44.3" id="SVGID_11_">
		<g class="st4">
			
				<linearGradient id="SVGID_12_" gradientUnits="userSpaceOnUse" x1="-184.7325" y1="740.5401" x2="-179.3469" y2="740.5401" gradientTransform="matrix(0 -8.227 -8.227 0 6098.8843 -1071.23)">
				<stop  offset="0" style="stop-color:#808080"/>
				<stop  offset="0.6179" style="stop-color:#D1D1D1"/>
				<stop  offset="1" style="stop-color:#FFFFFF"/>
			</linearGradient>
			<rect x="-8.2" y="404.3" class="st5" width="29.3" height="44.3"/>
		</g>
	</mask>
	
		<linearGradient id="SVGID_13_" gradientUnits="userSpaceOnUse" x1="-184.7324" y1="740.5404" x2="-179.3463" y2="740.5404" gradientTransform="matrix(0 -8.227 -8.227 0 6098.8848 -1071.2301)">
		<stop  offset="0" style="stop-color:#647D89"/>
		<stop  offset="1" style="stop-color:#647D89"/>
	</linearGradient>
	<rect x="-8.2" y="404.2" class="st6" width="29.3" height="44.3"/>
</g>
<g>
	<defs>
		<path id="SVGID_14_" d="M64.2,413.7l7.9,16.1H56.8L64.2,413.7z M61.8,404l-21.2,44.6h7.2l6.2-13.1H75l6.6,13.1h7.2l-22-44.6H61.8z
			"/>
	</defs>
	<clipPath id="SVGID_15_">
		<use xlink:href="#SVGID_14_"  style="overflow:visible;"/>
	</clipPath>
	<defs>
		<filter id="Adobe_OpacityMaskFilter_2_" filterUnits="userSpaceOnUse" x="40.6" y="404" width="48.1" height="44.6">
			<feColorMatrix  type="matrix" values="1 0 0 0 0  0 1 0 0 0  0 0 1 0 0  0 0 0 1 0"/>
		</filter>
	</defs>
	<mask maskUnits="userSpaceOnUse" x="40.6" y="404" width="48.1" height="44.6" id="SVGID_16_">
		<g class="st7">
			
				<linearGradient id="SVGID_17_" gradientUnits="userSpaceOnUse" x1="-184.3786" y1="734.5783" x2="-178.9921" y2="734.5783" gradientTransform="matrix(0 -8.2744 -8.2744 0 6142.8901 -1077.0632)">
				<stop  offset="0" style="stop-color:#808080"/>
				<stop  offset="0.6179" style="stop-color:#D1D1D1"/>
				<stop  offset="1" style="stop-color:#FFFFFF"/>
			</linearGradient>
			<rect x="40.6" y="404" class="st8" width="48.1" height="44.6"/>
		</g>
	</mask>
	
		<linearGradient id="SVGID_18_" gradientUnits="userSpaceOnUse" x1="-184.3786" y1="734.5786" x2="-178.9921" y2="734.5786" gradientTransform="matrix(0 -8.2744 -8.2744 0 6142.8901 -1077.0632)">
		<stop  offset="0" style="stop-color:#647D89"/>
		<stop  offset="1" style="stop-color:#647D89"/>
	</linearGradient>
	<rect x="40.6" y="404" class="st9" width="48.1" height="44.6"/>
</g>
<g>
	<defs>
		<polygon id="SVGID_19_" points="108.8,404.2 108.8,409.8 125.7,409.8 125.7,448.6 132.7,448.6 132.7,409.8 149.9,409.8 
			149.9,404.2 		"/>
	</defs>
	<clipPath id="SVGID_20_">
		<use xlink:href="#SVGID_19_"  style="overflow:visible;"/>
	</clipPath>
	<defs>
		<filter id="Adobe_OpacityMaskFilter_3_" filterUnits="userSpaceOnUse" x="108.8" y="404.2" width="41.1" height="44.3">
			<feColorMatrix  type="matrix" values="1 0 0 0 0  0 1 0 0 0  0 0 1 0 0  0 0 0 1 0"/>
		</filter>
	</defs>
	<mask maskUnits="userSpaceOnUse" x="108.8" y="404.2" width="41.1" height="44.3" id="SVGID_21_">
		<g class="st10">
			
				<linearGradient id="SVGID_22_" gradientUnits="userSpaceOnUse" x1="-184.7325" y1="728.379" x2="-179.3469" y2="728.379" gradientTransform="matrix(0 -8.227 -8.227 0 6121.6943 -1071.23)">
				<stop  offset="0" style="stop-color:#808080"/>
				<stop  offset="0.6179" style="stop-color:#D1D1D1"/>
				<stop  offset="1" style="stop-color:#FFFFFF"/>
			</linearGradient>
			<rect x="108.8" y="404.3" class="st11" width="41.1" height="44.3"/>
		</g>
	</mask>
	
		<linearGradient id="SVGID_23_" gradientUnits="userSpaceOnUse" x1="-184.7324" y1="728.379" x2="-179.3463" y2="728.379" gradientTransform="matrix(0 -8.227 -8.227 0 6121.6953 -1071.2301)">
		<stop  offset="0" style="stop-color:#647D89"/>
		<stop  offset="1" style="stop-color:#647D89"/>
	</linearGradient>
	<rect x="108.8" y="404.2" class="st12" width="41.1" height="44.3"/>
</g>
<g>
	<defs>
		<polygon id="SVGID_24_" points="171.1,404.2 171.1,409.8 188,409.8 188,448.6 195.1,448.6 195.1,409.8 212.3,409.8 212.3,404.2 		
			"/>
	</defs>
	<clipPath id="SVGID_25_">
		<use xlink:href="#SVGID_24_"  style="overflow:visible;"/>
	</clipPath>
	<defs>
		<filter id="Adobe_OpacityMaskFilter_4_" filterUnits="userSpaceOnUse" x="171.1" y="404.2" width="41.1" height="44.3">
			<feColorMatrix  type="matrix" values="1 0 0 0 0  0 1 0 0 0  0 0 1 0 0  0 0 0 1 0"/>
		</filter>
	</defs>
	<mask maskUnits="userSpaceOnUse" x="171.1" y="404.2" width="41.1" height="44.3" id="SVGID_26_">
		<g class="st13">
			
				<linearGradient id="SVGID_27_" gradientUnits="userSpaceOnUse" x1="-184.7325" y1="722.2048" x2="-179.3469" y2="722.2048" gradientTransform="matrix(0 -8.227 -8.227 0 6133.2739 -1071.23)">
				<stop  offset="0" style="stop-color:#808080"/>
				<stop  offset="0.6179" style="stop-color:#D1D1D1"/>
				<stop  offset="1" style="stop-color:#FFFFFF"/>
			</linearGradient>
			<rect x="171.1" y="404.3" class="st14" width="41.2" height="44.3"/>
		</g>
	</mask>
	
		<linearGradient id="SVGID_28_" gradientUnits="userSpaceOnUse" x1="-184.7324" y1="722.2051" x2="-179.3463" y2="722.2051" gradientTransform="matrix(0 -8.227 -8.227 0 6133.2744 -1071.2301)">
		<stop  offset="0" style="stop-color:#647D89"/>
		<stop  offset="1" style="stop-color:#647D89"/>
	</linearGradient>
	<rect x="171.1" y="404.2" class="st15" width="41.1" height="44.3"/>
</g>
<g>
	<defs>
		<path id="SVGID_29_" d="M255.8,413.7l7.9,16.1h-15.3L255.8,413.7z M253.4,404l-21.1,44.6h7.2l6.2-13.1h20.9l6.6,13.1h7.2l-22-44.6
			H253.4z"/>
	</defs>
	<clipPath id="SVGID_30_">
		<use xlink:href="#SVGID_29_"  style="overflow:visible;"/>
	</clipPath>
	<defs>
		<filter id="Adobe_OpacityMaskFilter_5_" filterUnits="userSpaceOnUse" x="232.3" y="404" width="48.1" height="44.6">
			<feColorMatrix  type="matrix" values="1 0 0 0 0  0 1 0 0 0  0 0 1 0 0  0 0 0 1 0"/>
		</filter>
	</defs>
	<mask maskUnits="userSpaceOnUse" x="232.3" y="404" width="48.1" height="44.6" id="SVGID_31_">
		<g class="st16">
			
				<linearGradient id="SVGID_32_" gradientUnits="userSpaceOnUse" x1="-184.3786" y1="715.7166" x2="-178.9921" y2="715.7166" gradientTransform="matrix(0 -8.2744 -8.2744 0 6178.4727 -1077.0632)">
				<stop  offset="0" style="stop-color:#808080"/>
				<stop  offset="0.6179" style="stop-color:#D1D1D1"/>
				<stop  offset="1" style="stop-color:#FFFFFF"/>
			</linearGradient>
			<rect x="232.3" y="404" class="st17" width="48.1" height="44.6"/>
		</g>
	</mask>
	
		<linearGradient id="SVGID_33_" gradientUnits="userSpaceOnUse" x1="-184.3786" y1="715.7163" x2="-178.9921" y2="715.7163" gradientTransform="matrix(0 -8.2744 -8.2744 0 6178.4727 -1077.0632)">
		<stop  offset="0" style="stop-color:#647D89"/>
		<stop  offset="1" style="stop-color:#647D89"/>
	</linearGradient>
	<rect x="232.3" y="404" class="st18" width="48.1" height="44.6"/>
</g>
<g>
	<defs>
		<path id="SVGID_34_" d="M311.8,409.6h2.2c4.3,0,6.6,0.3,8.4,1c2.2,1,3.7,3.3,3.7,5.8c0,3.6-2.6,6.4-6.5,6.8
			c-1.3,0.2-3.1,0.3-5.1,0.3h-2.7V409.6z M304.8,404.2v44.3h7v-19.3h1.9c3.2,0,4.3,0.2,5.9,1.3c2,1.3,3.8,3.2,6.2,6.2
			c1,1.4,2.9,3.9,4.7,6.6c0.8,1.1,1.4,1.9,1.7,2.3l1.7,2.3l0.5,0.6h8.4l-0.4-0.5l-2.2-2.7c-1.1-1.3-2.5-3.2-4.1-5.7
			c-3.4-5-4.5-6.6-6.7-8.8c-1.6-1.7-2.3-2.3-4.3-3.4c5.3-1.9,8.2-5.7,8.2-10.9c0-7.6-6.2-12.3-16.2-12.3H304.8z"/>
	</defs>
	<clipPath id="SVGID_35_">
		<use xlink:href="#SVGID_34_"  style="overflow:visible;"/>
	</clipPath>
	<defs>
		<filter id="Adobe_OpacityMaskFilter_6_" filterUnits="userSpaceOnUse" x="304.8" y="404.2" width="38" height="44.3">
			<feColorMatrix  type="matrix" values="1 0 0 0 0  0 1 0 0 0  0 0 1 0 0  0 0 0 1 0"/>
		</filter>
	</defs>
	<mask maskUnits="userSpaceOnUse" x="304.8" y="404.2" width="38" height="44.3" id="SVGID_36_">
		<g class="st19">
			
				<linearGradient id="SVGID_37_" gradientUnits="userSpaceOnUse" x1="-184.7325" y1="709.13" x2="-179.3469" y2="709.13" gradientTransform="matrix(0 -8.227 -8.227 0 6157.7988 -1071.23)">
				<stop  offset="0" style="stop-color:#808080"/>
				<stop  offset="0.6179" style="stop-color:#D1D1D1"/>
				<stop  offset="1" style="stop-color:#FFFFFF"/>
			</linearGradient>
			<rect x="304.8" y="404.3" class="st20" width="38" height="44.3"/>
		</g>
	</mask>
	
		<linearGradient id="SVGID_38_" gradientUnits="userSpaceOnUse" x1="-184.7324" y1="709.1297" x2="-179.3463" y2="709.1297" gradientTransform="matrix(0 -8.227 -8.227 0 6157.7998 -1071.2301)">
		<stop  offset="0" style="stop-color:#647D89"/>
		<stop  offset="1" style="stop-color:#647D89"/>
	</linearGradient>
	<rect x="304.8" y="404.2" class="st21" width="38" height="44.3"/>
</g>
<g>
	<defs>
		<path id="SVGID_39_" d="M374.1,409.9h8.9c6.5,0,8.5,0.3,11.8,1.6c6.5,2.6,10.2,8,10.2,14.6c0,7.7-5.1,14-12.6,15.8
			c-3.2,0.8-4.5,0.9-9.3,0.9h-9.1V409.9z M367.1,404.2v44.3l15.6,0.1c7.5,0,9.1-0.3,13-1.4c10-3.1,16.7-11.4,16.7-20.8
			c0-8.3-5-15.9-12.8-19.5c-1.9-0.9-4.2-1.6-6.7-2c-2.7-0.5-4.8-0.7-9.1-0.7H367.1z"/>
	</defs>
	<clipPath id="SVGID_40_">
		<use xlink:href="#SVGID_39_"  style="overflow:visible;"/>
	</clipPath>
	<defs>
		<filter id="Adobe_OpacityMaskFilter_7_" filterUnits="userSpaceOnUse" x="367.1" y="404.2" width="45.3" height="44.4">
			<feColorMatrix  type="matrix" values="1 0 0 0 0  0 1 0 0 0  0 0 1 0 0  0 0 0 1 0"/>
		</filter>
	</defs>
	<mask maskUnits="userSpaceOnUse" x="367.1" y="404.2" width="45.3" height="44.4" id="SVGID_41_">
		<g class="st22">
			
				<linearGradient id="SVGID_42_" gradientUnits="userSpaceOnUse" x1="-184.6536" y1="702.6063" x2="-179.2677" y2="702.6063" gradientTransform="matrix(0 -8.2383 -8.2383 0 6177.9966 -1072.6188)">
				<stop  offset="0" style="stop-color:#808080"/>
				<stop  offset="0.6179" style="stop-color:#D1D1D1"/>
				<stop  offset="1" style="stop-color:#FFFFFF"/>
			</linearGradient>
			<rect x="367.1" y="404.3" class="st23" width="45.3" height="44.4"/>
		</g>
	</mask>
	
		<linearGradient id="SVGID_43_" gradientUnits="userSpaceOnUse" x1="-184.6536" y1="702.6063" x2="-179.267" y2="702.6063" gradientTransform="matrix(0 -8.2383 -8.2383 0 6177.9966 -1072.6188)">
		<stop  offset="0" style="stop-color:#647D89"/>
		<stop  offset="1" style="stop-color:#647D89"/>
	</linearGradient>
	<rect x="367.1" y="404.2" class="st24" width="45.3" height="44.4"/>
</g>
<g>
	<defs>
		<path id="SVGID_44_" d="M64.4,243.8c0-61.1,49.7-110.8,110.8-110.8S286,182.7,286,243.8s-49.7,110.8-110.8,110.8
			S64.4,304.9,64.4,243.8 M58.1,243.8c0,64.6,52.5,117.1,117.1,117.1c64.6,0,117.1-52.5,117.1-117.1c0-64.6-52.5-117.1-117.1-117.1
			C110.7,126.8,58.1,179.3,58.1,243.8"/>
	</defs>
	<clipPath id="SVGID_45_">
		<use xlink:href="#SVGID_44_"  style="overflow:visible;"/>
	</clipPath>
	
		<linearGradient id="SVGID_46_" gradientUnits="userSpaceOnUse" x1="-129.7039" y1="692.1528" x2="-124.3178" y2="692.1528" gradientTransform="matrix(43.4756 0 0 -43.4756 5697.1025 30335.627)">
		<stop  offset="0" style="stop-color:#00A0E9"/>
		<stop  offset="0.23" style="stop-color:#00A0E9"/>
		<stop  offset="0.2972" style="stop-color:#0097DF"/>
		<stop  offset="0.4094" style="stop-color:#0080C6"/>
		<stop  offset="0.5522" style="stop-color:#005A9C"/>
		<stop  offset="0.565" style="stop-color:#005698"/>
		<stop  offset="0.78" style="stop-color:#005698"/>
		<stop  offset="1" style="stop-color:#005698"/>
	</linearGradient>
	<rect x="58.1" y="126.8" class="st25" width="234.2" height="234.2"/>
</g>
<g>
	<defs>
		<path id="SVGID_47_" d="M199.8,40.3c-2.4,17-14.5,92.1-42.2,132.7c-30.3,44.5-39.9,53.6-81.2,88.8C17,312.4-13.3,381.9-13.3,381.9
			s57-57.8,118.6-81.3c61.6-23.6,154.3-34.2,154.3-34.2c-53.7-43.3-58.8-200.7-59.2-226.1H199.8z"/>
	</defs>
	<clipPath id="SVGID_48_">
		<use xlink:href="#SVGID_47_"  style="overflow:visible;"/>
	</clipPath>
	
		<linearGradient id="SVGID_49_" gradientUnits="userSpaceOnUse" x1="-130.5369" y1="700.7924" x2="-125.1507" y2="700.7924" gradientTransform="matrix(37.6565 -65.2229 -65.2229 -37.6565 50638.3711 18273.6445)">
		<stop  offset="0" style="stop-color:#005698"/>
		<stop  offset="0.34" style="stop-color:#005698"/>
		<stop  offset="0.56" style="stop-color:#009EDD"/>
		<stop  offset="0.77" style="stop-color:#005698"/>
		<stop  offset="1" style="stop-color:#005698"/>
	</linearGradient>
	<polygon class="st26" points="-161.2,296.5 54.9,-77.9 407.5,125.7 191.4,500.1 	"/>
</g>
<g>
	<path class="st27" d="M-11.4,383.7l-4.3-2.9c0.3-0.7,31.2-70.6,90.4-121c40.3-34.3,50-43.2,80.7-88.3
		c30.7-44.9,42.2-134.2,42.3-135.1l5.2,0.3c0,1.8,1.4,181.7,58.3,227.5l4.9,3.9l-6.2,0.7c-0.9,0.1-93.1,10.9-153.7,34
		C45.9,326.1-10.9,383.2-11.4,383.7 M198.5,63.8c-5.8,30.5-17.8,79.9-38.8,110.7c-31.1,45.6-40.9,54.6-81.6,89.3
		C35,300.5,7.2,347.6-4.5,370c19.5-17.7,63.1-54.4,108.9-71.9c52.3-20,127.9-30.9,149.2-33.6C211.5,224.1,201.1,115,198.5,63.8"/>
</g>
<g>
	<defs>
		
			<rect id="SVGID_50_" x="-98.2" y="465.1" transform="matrix(-1 -1.382278e-004 1.382278e-004 -1 348.2034 935.3755)" width="544.6" height="5.2"/>
	</defs>
	<clipPath id="SVGID_51_">
		<use xlink:href="#SVGID_50_"  style="overflow:visible;"/>
	</clipPath>
	
		<linearGradient id="SVGID_52_" gradientUnits="userSpaceOnUse" x1="-127.1414" y1="694.8234" x2="-121.7552" y2="694.8234" gradientTransform="matrix(101.1156 0 0 -101.1156 12757.7979 70725.1719)">
		<stop  offset="0" style="stop-color:#00A0E9"/>
		<stop  offset="0.2271" style="stop-color:#0094DC"/>
		<stop  offset="0.6463" style="stop-color:#0075BA"/>
		<stop  offset="1" style="stop-color:#005698"/>
	</linearGradient>
	<rect x="-98.2" y="465" class="st28" width="544.6" height="5.3"/>
</g>
<g>
	<defs>
		<path id="SVGID_53_" d="M159.3,521.7c0,8.2,6.6,14.8,14.8,14.8c8.2,0,14.8-6.6,14.8-14.8c0-8.2-6.6-14.8-14.8-14.8
			C165.9,506.8,159.3,513.5,159.3,521.7"/>
	</defs>
	<clipPath id="SVGID_54_">
		<use xlink:href="#SVGID_53_"  style="overflow:visible;"/>
	</clipPath>
	
		<linearGradient id="SVGID_55_" gradientUnits="userSpaceOnUse" x1="-160.9668" y1="596.9634" x2="-155.5814" y2="596.9634" gradientTransform="matrix(5.5068 0 0 -5.5068 1045.7139 3809.002)">
		<stop  offset="0" style="stop-color:#00A0E9"/>
		<stop  offset="0.2271" style="stop-color:#0094DC"/>
		<stop  offset="0.6463" style="stop-color:#0075BA"/>
		<stop  offset="1" style="stop-color:#005698"/>
	</linearGradient>
	<rect x="159.3" y="506.8" class="st29" width="29.7" height="29.7"/>
</g>
</svg>
