<?xml version="1.0" encoding="UTF-8"?>
<svg viewBox="0 0 160 64" version="1.1" xmlns="http://www.w3.org/2000/svg" xmlns:xlink="http://www.w3.org/1999/xlink">
    <title>9F9D3BEF-E789-4149-8492-C5E879AE4929</title>
    <g id="Page-1" stroke="none" stroke-width="1" fill="none" fill-rule="evenodd">
        <g id="IT1_Home_samse_desktop" transform="translate(-40.000000, -63.000000)" fill-rule="nonzero">
            <g id="logotype/normal/inline" transform="translate(40.000000, 63.000000)">
                <path d="M2.31747712,49.1779365 L5.42587695,49.1779365 C7.03021235,49.1779365 8.7348187,49.8790476 8.33373485,51.982381 C8.13319293,53.084127 7.33102523,53.9855556 6.22804465,53.9855556 C7.53156716,54.0857143 8.03292197,54.8869841 7.83238004,56.1890476 C7.63183812,57.3909524 6.6291285,58.9934921 4.32289637,58.9934921 L0.713141729,58.9934921 L2.31747712,49.1779365 L2.31747712,49.1779365 Z M3.92181252,56.79 C4.52343829,56.79 5.0247931,56.4895238 5.22533503,55.8885714 C5.32560599,55.1874603 4.82425118,54.9871429 4.22262541,54.9871429 L4.02208348,54.9871429 L3.72127059,56.8901587 L3.92181252,56.8901587 L3.92181252,56.79 Z M4.52343829,52.9839683 C5.0247931,52.9839683 5.62641888,52.7836508 5.72668984,52.0825397 C5.8269608,51.4815873 5.42587695,51.2812698 4.92452214,51.2812698 L4.62370925,51.2812698 L4.32289637,52.9839683 L4.52343829,52.9839683 L4.52343829,52.9839683 Z M12.4448443,58.8933333 L11.6426766,54.7868254 C11.5424056,55.287619 11.5424056,55.7884127 11.4421347,56.1890476 L11.0410508,58.7931746 L8.33373485,58.7931746 L9.83779929,48.977619 L12.4448443,48.977619 C14.7510764,48.977619 16.2551409,49.6787302 15.854057,52.2828571 C15.6535151,53.3846032 15.0518893,54.2860317 13.9489087,54.6866667 L15.2524312,58.7931746 L12.4448443,58.7931746 L12.4448443,58.8933333 Z M11.9434895,53.6850794 C12.6453862,53.6850794 13.146741,53.084127 13.247012,52.4831746 C13.347283,51.581746 12.9461991,51.2812698 12.1440314,51.2812698 L11.7429476,53.6850794 L11.9434895,53.6850794 L11.9434895,53.6850794 Z" id="Shape" fill="#0A4CA2"></path>
                <path d="M19.8648955,58.8933333 L19.8648955,57.5912698 L18.0600182,57.5912698 L17.6589343,58.8933333 L14.9516184,58.8933333 L18.8621859,49.0777778 L22.0708567,49.0777778 L22.5722115,58.8933333 L19.8648955,58.8933333 Z M19.8648955,55.5880952 L19.9651665,53.2844444 C19.9651665,52.6834921 20.0654374,52.0825397 20.0654374,51.4815873 C19.8648955,52.0825397 19.7646245,52.6834921 19.5640826,53.2844444 L18.8621859,55.5880952 L19.8648955,55.5880952 L19.8648955,55.5880952 Z M24.1765469,58.8933333 L23.4746501,49.0777778 L26.2822371,49.0777778 L26.2822371,53.084127 C26.2822371,53.8853968 26.1819661,54.6866667 26.1819661,55.4879365 C26.382508,54.6866667 26.58305,53.8853968 26.8838629,53.084127 L28.2876563,49.0777778 L31.1955142,49.0777778 L26.9841338,58.8933333 L24.1765469,58.8933333 L24.1765469,58.8933333 Z M34.504456,48.977619 C37.211772,48.977619 37.8133977,51.6819048 37.4123139,54.0857143 C37.111501,56.3893651 35.6074366,59.0936508 32.9001206,59.0936508 C30.1928046,59.0936508 29.5911788,56.3893651 29.9922627,53.9855556 C30.3933465,51.6819048 31.79714,48.977619 34.504456,48.977619 Z M33.3012044,56.6898413 C34.3039141,56.6898413 34.6047269,54.6866667 34.7049979,54.0857143 C34.8052689,53.4847619 35.1060818,51.4815873 34.1033721,51.4815873 C33.1006625,51.4815873 32.6995787,53.4847619 32.6995787,54.0857143 C32.5993077,54.6866667 32.2984948,56.6898413 33.3012044,56.6898413 Z M37.3120429,60.9966667 L35.9082495,60.9966667 L37.211772,57.891746 L38.9163783,57.891746 L37.3120429,60.9966667 Z M41.9245072,58.8933333 L43.4285716,49.0777778 L46.1358876,49.0777778 L44.932636,56.5896825 L46.9380553,56.5896825 L46.5369714,58.8933333 L41.9245072,58.8933333 L41.9245072,58.8933333 Z M48.7429326,49.1779365 L53.6562098,49.1779365 L53.2551259,51.4815873 L50.9488938,51.4815873 L50.7483519,52.8838095 L52.7537711,52.8838095 L52.3526872,55.1874603 L50.347268,55.1874603 L50.1467261,56.5896825 L52.4529582,56.5896825 L52.0518744,58.8933333 L47.1385972,58.8933333 L48.7429326,49.1779365 L48.7429326,49.1779365 Z M53.3553969,55.688254 C53.6562098,56.1890476 54.1575646,56.79 54.8594613,56.79 C55.2605451,56.79 55.661629,56.5896825 55.7619,56.1890476 C55.7619,55.9887302 55.7619,55.7884127 55.661629,55.688254 C55.561358,55.5880952 55.4610871,55.3877778 55.2605451,55.287619 C54.7591903,54.8869841 54.4583775,54.4863492 54.1575646,54.0857143 C53.8567517,53.5849206 53.7564807,53.084127 53.8567517,52.3830159 C54.0572936,51.2812698 55.0600032,49.1779365 57.3662354,49.1779365 C57.9678611,49.1779365 58.6697579,49.378254 59.1711127,49.6787302 L58.6697579,52.6834921 C58.4692159,52.1826984 57.8675902,51.6819048 57.2659644,51.6819048 C56.9651515,51.6819048 56.5640677,51.8822222 56.4637967,52.2828571 C56.4637967,52.4831746 56.5640677,52.6834921 56.6643386,52.7836508 C56.7646096,52.9839683 56.9651515,53.084127 57.0654225,53.1842857 C57.5667773,53.5849206 57.9678611,53.9855556 58.1684031,54.3861905 C58.368945,54.7868254 58.4692159,55.3877778 58.368945,56.0888889 C58.1684031,57.6914286 56.6643386,59.0936508 54.7591903,59.0936508 C54.0572936,59.0936508 53.4556678,58.9934921 52.8540421,58.6930159 L53.3553969,55.688254 L53.3553969,55.688254 Z M65.4881833,58.8933333 L66.0898091,54.8869841 L64.7862866,54.8869841 L64.1846608,58.8933333 L61.5776158,58.8933333 L63.0816802,49.0777778 L65.6887252,49.0777778 L65.1873704,52.6834921 L66.4908929,52.6834921 L67.0925187,49.1779365 L69.6995637,49.1779365 L68.1954993,58.9934921 L65.4881833,58.9934921 L65.4881833,58.8933333 Z M73.9109441,48.977619 C76.6182601,48.977619 77.2198859,51.6819048 76.818802,54.0857143 C76.4177182,56.4895238 75.0139247,59.1938095 72.3066087,59.1938095 C69.5992927,59.1938095 68.997667,56.4895238 69.3987508,54.0857143 C69.7998347,51.6819048 71.2036281,48.977619 73.9109441,48.977619 Z M72.7076926,56.6898413 C73.7104022,56.6898413 74.0112151,54.6866667 74.111486,54.0857143 C74.211757,53.4847619 74.5125699,51.4815873 73.5098603,51.4815873 C72.5071506,51.4815873 72.2063378,53.4847619 72.1060668,54.0857143 C72.0057958,54.6866667 71.7049829,56.6898413 72.7076926,56.6898413 Z M83.5369565,58.8933333 L84.2388532,52.7836508 C84.0383113,53.4847619 83.8377694,54.185873 83.5369565,54.8869841 L82.133163,58.8933333 L79.9272018,58.8933333 L80.0274728,52.7836508 C79.9272018,53.4847619 79.8269309,54.185873 79.626389,54.9871429 L78.8242213,58.9934921 L76.0166343,58.9934921 L78.7239503,49.1779365 L82.032892,49.1779365 L81.9326211,54.3861905 C82.133163,53.7852381 82.233434,53.1842857 82.4339759,52.5833333 L83.6372274,49.1779365 L86.9461692,49.1779365 L86.3445434,58.9934921 L83.5369565,58.9934921 L83.5369565,58.8933333 Z M93.9651365,58.8933333 L94.6670333,52.7836508 C94.4664914,53.4847619 94.2659494,54.185873 93.9651365,54.8869841 L92.5613431,58.8933333 L90.3553819,58.8933333 L90.4556529,52.7836508 C90.3553819,53.4847619 90.2551109,54.185873 90.054569,54.9871429 L89.2524013,58.9934921 L86.4448144,58.9934921 L89.1521304,49.1779365 L92.4610721,49.1779365 L92.2605302,54.3861905 C92.4610721,53.7852381 92.5613431,53.1842857 92.761885,52.5833333 L93.9651365,49.1779365 L97.2740783,49.1779365 L96.6724525,58.9934921 L93.9651365,58.9934921 L93.9651365,58.8933333 Z M98.6778718,49.1779365 L103.591149,49.1779365 L103.190065,51.4815873 L100.883833,51.4815873 L100.683291,52.8838095 L102.68871,52.8838095 L102.287626,55.1874603 L100.282207,55.1874603 L100.081665,56.6898413 L102.387897,56.6898413 L101.986814,58.9934921 L97.0735364,58.9934921 L98.6778718,49.1779365 L98.6778718,49.1779365 Z M103.290336,55.688254 C103.591149,56.1890476 104.092504,56.79 104.7944,56.79 C105.195484,56.79 105.596568,56.5896825 105.696839,56.1890476 C105.696839,55.9887302 105.696839,55.7884127 105.596568,55.688254 C105.496297,55.5880952 105.396026,55.3877778 105.195484,55.287619 C104.694129,54.8869841 104.393317,54.4863492 104.092504,54.0857143 C103.791691,53.5849206 103.69142,53.084127 103.791691,52.3830159 C103.992233,51.2812698 104.994942,49.1779365 107.301175,49.1779365 C107.9028,49.1779365 108.604697,49.378254 109.106052,49.6787302 L108.604697,52.6834921 C108.404155,52.1826984 107.802529,51.6819048 107.200904,51.6819048 C106.900091,51.6819048 106.499007,51.8822222 106.398736,52.2828571 C106.398736,52.4831746 106.499007,52.6834921 106.599278,52.7836508 C106.699549,52.9839683 106.900091,53.084127 107.000362,53.1842857 C107.501716,53.5849206 107.9028,53.9855556 108.103342,54.3861905 C108.303884,54.7868254 108.404155,55.3877778 108.303884,56.0888889 C108.003071,57.891746 106.499007,59.394127 104.694129,59.394127 C103.992233,59.394127 103.390607,59.2939683 102.788981,58.9934921 L103.290336,55.688254 L103.290336,55.688254 Z M113.11689,49.1779365 L118.030167,49.1779365 L117.629084,51.4815873 L115.322851,51.4815873 L115.12231,52.8838095 L117.127729,52.8838095 L116.726645,55.1874603 L114.721226,55.1874603 L114.520684,56.6898413 L116.826916,56.6898413 L116.425832,58.9934921 L111.512555,58.9934921 L113.11689,49.1779365 L113.11689,49.1779365 Z M118.932606,49.1779365 L121.43938,49.1779365 L122.642632,55.0873016 C122.742903,53.9855556 122.742903,52.8838095 122.843174,51.6819048 L123.244257,49.1779365 L125.751032,49.1779365 L124.246967,58.9934921 L121.740193,58.9934921 L120.637212,53.3846032 C120.536942,54.2860317 120.536942,55.1874603 120.3364,56.0888889 L119.835045,58.9934921 L117.328271,58.9934921 L118.932606,49.1779365 Z M129.76187,49.1779365 L132.87027,49.1779365 C134.474605,49.1779365 136.179212,49.8790476 135.778128,51.982381 C135.577586,53.084127 134.775418,53.9855556 133.672438,53.9855556 C134.97596,54.0857143 135.477315,54.8869841 135.276773,56.1890476 C135.076231,57.3909524 134.073521,58.9934921 131.767289,58.9934921 L128.257806,58.9934921 L129.76187,49.1779365 Z M131.366205,56.79 C131.967831,56.79 132.469186,56.4895238 132.669728,55.8885714 C132.769999,55.1874603 132.268644,54.9871429 131.667018,54.9871429 L131.466476,54.9871429 L131.165664,56.8901587 L131.366205,56.8901587 L131.366205,56.79 Z M131.967831,52.9839683 C132.469186,52.9839683 133.070812,52.7836508 133.171083,52.0825397 C133.271354,51.4815873 132.87027,51.2812698 132.368915,51.2812698 L132.068102,51.2812698 L131.767289,52.9839683 L131.967831,52.9839683 L131.967831,52.9839683 Z M135.477315,58.8933333 L136.981379,49.0777778 L139.588424,49.0777778 L138.385173,56.5896825 L140.390592,56.5896825 L139.989508,58.8933333 L135.477315,58.8933333 Z M142.496282,49.1779365 L147.409559,49.1779365 L147.008476,51.4815873 L144.702243,51.4815873 L144.501701,52.8838095 L146.507121,52.8838095 L146.106037,55.1874603 L144.100618,55.1874603 L143.900076,56.6898413 L146.206308,56.6898413 L145.805224,58.9934921 L140.891947,58.9934921 L142.496282,49.1779365 L142.496282,49.1779365 Z M154.829611,49.1779365 L153.826901,55.5880952 C153.626359,56.79 153.024733,59.0936508 149.916333,59.0936508 C146.807934,59.0936508 147.008476,56.6898413 147.108746,55.5880952 L148.111456,49.1779365 L150.718501,49.1779365 L149.715792,55.287619 C149.715792,55.5880952 149.615521,55.8885714 149.615521,56.1890476 C149.615521,56.4895238 149.816062,56.6898413 150.116875,56.6898413 C150.517959,56.6898413 150.718501,56.4895238 150.818772,56.1890476 C150.919043,55.8885714 151.019314,55.5880952 151.019314,55.287619 L152.022024,49.0777778 L154.829611,49.0777778 L154.829611,49.1779365 Z M155.431236,57.5912698 C155.531507,56.79 156.333675,56.0888889 157.135843,56.0888889 C157.93801,56.0888889 158.539636,56.6898413 158.439365,57.5912698 C158.339094,58.3925397 157.536927,59.0936508 156.734759,59.0936508 C155.83232,59.0936508 155.330965,58.3925397 155.431236,57.5912698 Z M156.032862,55.4879365 L157.135843,48.6771429 L159.742888,48.6771429 L158.639907,55.4879365 L156.032862,55.4879365 Z" id="Shape" fill="#0A4CA2"></path>
                <path d="M0.111515956,62.6993651 C0.111515956,62.6993651 7.53156716,61.0968254 15.954328,60.7963492 C15.954328,60.7963492 24.5776307,60.5960317 28.8892821,60.9966667 C28.8892821,60.9966667 31.9976819,60.9966667 35.1060818,61.6977778 C35.1060818,61.6977778 35.0058108,62.3988889 34.7049979,62.6993651 C34.7049979,62.6993651 29.089824,62.3988889 27.0844048,62.1985714 C27.0844048,62.1985714 14.5505345,61.8980952 12.9461991,62.1985714 C12.9461991,62.1985714 7.23075427,62.3988889 4.52343829,62.7995238 C4.52343829,62.7995238 3.11964482,62.7995238 0.612870767,63.2001587 C0.512599805,63.1 -0.289567892,63.2001587 0.111515956,62.6993651 L0.111515956,62.6993651 Z" id="Path" fill="#FBB731"></path>
                <path d="M159.341804,21.7344444 L155.431236,21.7344444 L156.534217,20.7328571 C156.83503,20.7328571 157.035572,20.432381 157.035572,20.1319048 L157.035572,14.2225397 L159.742888,11.6184127 L159.843159,11.518254 L159.843159,11.3179365 C159.843159,4.80761905 154.629069,0.901428571 149.615521,0.901428571 L136.078941,0.901428571 L131.767289,5.00793651 C129.661599,2.10333333 126.352657,0.30047619 122.542361,0.30047619 C122.141277,0.30047619 121.740193,0.30047619 121.339109,0.400634921 C120.938025,0.400634921 120.637212,0.500793651 120.236129,0.600952381 C118.030167,1.0015873 116.125019,2.10333333 114.620955,3.60571429 C112.01391,5.60888889 109.507136,8.11285714 107.401445,10.3163492 L107.100633,10.6168254 C105.095213,12.7201587 103.992233,15.5246032 103.992233,18.4292063 C103.992233,19.8314286 104.192775,21.2336508 104.694129,22.4355556 L102.087084,24.7392063 L102.087084,0.701111111 C102.087084,0.400634921 101.786272,0.10015873 101.485459,0.10015873 C95.36893,0.10015873 90.8567367,3.50555556 88.2496917,6.51031746 C87.447524,7.21142857 86.6453563,7.91253968 85.9434596,8.61365079 C83.9380403,5.3084127 78.8242213,0 71.2036281,0 L70.9028152,0 L70.8025443,0.10015873 L63.7835769,6.71063492 C63.683306,6.81079365 63.583035,7.01111111 63.583035,7.11126984 L63.583035,25.8409524 L51.7510615,1.40222222 L51.6507905,1.30206349 L51.5505195,1.20190476 L51.0491647,1.20190476 C51.0491647,1.20190476 50.9488938,1.20190476 50.9488938,1.30206349 L50.8486228,1.30206349 L43.8296555,7.91253968 C43.7293845,8.01269841 43.7293845,8.01269841 43.7293845,8.11285714 L36.7104171,23.6374603 C36.6101462,20.5325397 35.4068946,17.7280952 33.3012044,15.3242857 L36.5098752,12.3195238 L36.5098752,11.9188889 C36.5098752,5.60888889 31.3960562,0.500793651 25.0789855,0.500793651 C24.6779017,0.500793651 24.2768178,0.500793651 23.875734,0.600952381 C23.3743792,0.600952381 22.9732953,0.701111111 22.4719405,0.801269841 C20.4665213,1.30206349 18.661644,2.20349206 17.2578505,3.60571429 C14.6508055,5.60888889 12.0437605,8.21301587 9.93807025,10.4165079 L9.63725736,10.7169841 C7.63183812,12.8203175 6.52885754,15.6247619 6.52885754,18.5293651 C6.52885754,19.9315873 6.72939946,21.3338095 7.23075427,22.5357143 L1.01395462,27.9442857 C0.913683654,28.0444444 0.813412691,28.1446032 0.813412691,28.2447619 C0.713141729,28.945873 0.612870767,29.7471429 0.612870767,30.5484127 C0.612870767,38.4609524 7.13048331,44.9712698 15.0518893,44.9712698 C18.661644,44.9712698 22.1711276,43.6692063 24.7781726,41.1652381 C25.2795275,40.7646032 25.7808823,40.2638095 26.382508,39.7630159 C27.8865725,38.4609524 29.6914498,36.9585714 31.1955142,35.255873 L27.8865725,42.4673016 C27.7863015,42.667619 27.7863015,42.8679365 27.8865725,43.068254 C27.9868434,43.2685714 28.1873854,43.3687302 28.3879273,43.3687302 L35.4068946,43.3687302 C38.0139397,43.3687302 39.718546,42.8679365 40.6209847,41.9665079 C41.0220685,41.565873 42.7266749,39.8631746 44.6318232,37.86 C47.2388682,41.3655556 50.447539,43.1684127 54.3581065,43.1684127 L60.5749061,43.1684127 C60.6751771,43.1684127 60.875719,43.068254 60.97599,42.9680952 L63.482764,40.6644444 L63.482764,42.667619 C63.482764,42.9680952 63.7835769,43.2685714 64.0843898,43.2685714 L73.1087764,43.2685714 C73.2090474,43.2685714 73.4095893,43.1684127 73.5098603,43.068254 L74.9136537,41.7661905 L74.9136537,42.667619 C74.9136537,42.9680952 75.2144666,43.2685714 75.5152795,43.2685714 L83.2361436,43.2685714 C83.3364146,43.2685714 83.5369565,43.1684127 83.6372274,43.068254 L85.0410209,41.7661905 L85.0410209,42.5674603 C85.0410209,42.8679365 85.3418338,43.1684127 85.6426467,43.1684127 L94.5667623,43.1684127 C94.6670333,43.1684127 94.8675752,43.068254 94.9678462,42.9680952 L100.282207,37.9601587 C102.788981,42.0666667 107.401445,44.8711111 112.615536,44.8711111 C116.22529,44.8711111 119.734774,43.5690476 122.341819,41.0650794 C122.843174,40.6644444 123.344528,40.1636508 123.946154,39.6628571 C125.650761,38.1604762 127.65618,36.4577778 129.260515,34.6549206 C130.263225,39.1620635 134.173792,43.2685714 139.989508,43.2685714 L152.423107,43.2685714 C152.523378,43.2685714 152.72392,43.1684127 152.824191,43.068254 L159.843159,36.4577778 L159.843159,22.3353968 C159.94343,22.0349206 159.642617,21.7344444 159.341804,21.7344444 Z" id="Path" fill="#0A4CA2"></path>
                <path d="M124.848593,12.2193651 C124.648051,12.1192063 124.447509,11.8187302 124.54778,11.518254 C124.648051,11.2177778 124.848593,11.117619 125.149406,11.117619 L132.769999,11.117619 C132.469186,5.70904762 127.956993,1.40222222 122.542361,1.40222222 C116.927187,1.40222222 112.314723,6.00952381 112.314723,11.6184127 C112.314723,14.4228571 113.417703,17.0269841 115.423122,18.93 L117.629084,21.2336508 C117.829626,21.4339683 117.829626,21.6342857 117.729355,21.8346032 C117.629084,22.0349206 117.428542,22.2352381 117.228,22.2352381 L106.499007,22.2352381 C106.398736,22.7360317 106.398736,23.2368254 106.398736,23.8377778 C106.398736,31.1493651 112.314723,37.0587302 119.634503,37.0587302 C126.954283,37.0587302 132.87027,31.1493651 132.87027,23.8377778 C132.769999,21.6342857 131.967831,15.9252381 124.848593,12.2193651 Z M42.526133,35.5563492 C45.3337199,35.5563492 46.4367005,34.9553968 46.8377843,34.4546032 C47.5396811,33.6533333 49.0437455,31.8504762 49.5451003,31.1493651 L46.6372424,25.24 C46.5369714,25.0396825 46.5369714,24.8393651 46.6372424,24.6390476 C46.7375134,24.4387302 46.9380553,24.3385714 47.1385972,24.3385714 L48.6426616,24.3385714 C48.8432036,24.3385714 49.0437455,24.4387302 49.1440165,24.6390476 C49.1440165,24.6390476 49.6453713,25.7407937 51.4502486,28.8457143 C53.9570226,33.052381 57.1656934,35.255873 61.2768029,35.255873 L66.5911639,35.255873 L51.2497067,3.0047619 L36.5098752,35.5563492 L42.526133,35.5563492 Z M86.3445434,11.4180952 C86.0437305,11.4180952 85.7429176,11.117619 85.7429176,10.8171429 C85.7429176,10.3163492 84.4393951,7.81238095 81.9326211,5.50873016 C79.8269309,3.60571429 76.4177182,1.30206349 71.7049829,1.10174603 L71.7049829,35.3560317 L79.526118,35.3560317 L79.526118,29.3465079 C79.526118,29.0460317 79.8269309,28.7455556 80.1277438,28.7455556 L82.5342469,28.7455556 C82.8350597,28.7455556 83.1358726,29.0460317 83.1358726,29.3465079 L83.1358726,35.3560317 L89.6534852,35.3560317 L89.6534852,29.3465079 C89.6534852,29.0460317 89.9542981,28.7455556 90.2551109,28.7455556 L92.5613431,28.7455556 C92.862156,28.7455556 93.1629688,29.0460317 93.1629688,29.3465079 L93.1629688,35.3560317 L100.883833,35.3560317 L100.883833,1.20190476 C96.2713687,1.40222222 92.862156,3.60571429 90.7564658,5.60888889 C88.2496917,7.91253968 86.9461692,10.3163492 86.9461692,10.9173016 C86.9461692,11.2177778 86.6453563,11.4180952 86.3445434,11.4180952 Z M147.108746,22.3353968 L147.108746,20.1319048 C147.108746,19.8314286 147.409559,19.5309524 147.710372,19.5309524 L155.83232,19.5309524 L155.83232,13.9220635 L147.710372,13.9220635 C147.409559,13.9220635 147.108746,13.6215873 147.108746,13.3211111 L147.108746,11.117619 C147.108746,10.8171429 147.409559,10.5166667 147.710372,10.5166667 L158.740178,10.5166667 C158.439365,6.71063492 155.631778,1.80285714 149.715792,1.80285714 L137.181921,1.80285714 L137.181921,25.6406349 C137.181921,30.3480952 140.891947,35.4561905 147.008476,35.4561905 L158.840449,35.4561905 L158.840449,22.9363492 L147.810643,22.9363492 C147.409559,22.9363492 147.108746,22.635873 147.108746,22.3353968 L147.108746,22.3353968 Z M27.4854886,12.2193651 C27.2849467,12.1192063 27.0844048,11.8187302 27.1846757,11.518254 C27.2849467,11.2177778 27.4854886,11.117619 27.7863015,11.117619 L35.4068946,11.117619 C35.1060818,5.70904762 30.5938885,1.40222222 25.1792565,1.40222222 C19.5640826,1.40222222 14.9516184,6.00952381 14.9516184,11.6184127 C14.9516184,14.4228571 16.0545989,17.0269841 18.0600182,18.93 L20.2659794,21.2336508 C20.4665213,21.4339683 20.4665213,21.6342857 20.3662503,21.8346032 C20.2659794,22.0349206 20.0654374,22.2352381 19.8648955,22.2352381 L9.03563159,22.3353968 C8.93536063,22.8361905 8.93536063,23.4371429 8.93536063,23.9379365 C8.93536063,31.2495238 14.8513474,37.1588889 22.1711276,37.1588889 C29.4909079,37.1588889 35.4068946,31.2495238 35.4068946,23.9379365 C35.4068946,21.6342857 34.6047269,15.9252381 27.4854886,12.2193651 Z" id="Shape" fill="#FBB731"></path>
            </g>
        </g>
    </g>
</svg>
